<svg width="280" height="280" fill="none" xmlns="http://www.w3.org/2000/svg"><path d="M31.514 144.129C10.504 123.094 0 112.576 0 99.506c0-13.07 10.505-23.588 31.514-44.624l1.696-1.697C54.22 32.148 64.724 21.63 77.778 21.63c13.053 0 23.558 10.518 44.568 31.553l1.695 1.698c21.01 21.036 31.515 31.554 31.515 44.624 0 13.07-10.505 23.588-31.515 44.623l-1.695 1.698c-21.01 21.036-31.515 31.554-44.568 31.554-13.054 0-23.559-10.518-44.568-31.554l-1.696-1.698z" fill="url(#paint0_linear_1363_39024)"/><g filter="url(#filter0_b_1363_39024)"><path fill-rule="evenodd" clip-rule="evenodd" d="M152.598 26.1a59.58 59.58 0 015.914 0c7.605.379 14.607 2.591 22.412 6.218 7.599 3.53 16.429 8.635 27.599 15.092l.633.366c11.17 6.457 20 11.562 26.853 16.385 7.04 4.955 12.454 9.92 16.584 16.325a59.574 59.574 0 012.957 5.128c3.476 6.784 5.063 13.961 5.829 22.543.745 8.354.745 18.562.745 31.477v.732c0 12.914 0 23.123-.745 31.477-.766 8.582-2.353 15.759-5.829 22.543a59.713 59.713 0 01-2.957 5.128c-4.13 6.405-9.544 11.37-16.584 16.325-6.853 4.823-15.682 9.927-26.853 16.385l-.633.365c-11.17 6.458-20 11.562-27.599 15.093-7.805 3.627-14.807 5.839-22.412 6.217-1.97.098-3.944.098-5.914 0-7.605-.378-14.607-2.59-22.412-6.217-7.599-3.531-16.428-8.635-27.599-15.093l-.633-.366c-11.17-6.456-20-11.561-26.853-16.384-7.04-4.955-12.454-9.92-16.584-16.325a59.844 59.844 0 01-2.957-5.128c-3.475-6.784-5.062-13.961-5.828-22.543-.746-8.354-.746-18.562-.746-31.477v-.732c0-12.915 0-23.123.746-31.477.766-8.582 2.353-15.76 5.828-22.543a59.705 59.705 0 012.957-5.128c4.13-6.405 9.544-11.37 16.584-16.325 6.853-4.823 15.683-9.927 26.853-16.385l.633-.366c11.171-6.457 20-11.561 27.599-15.092 7.805-3.627 14.807-5.84 22.412-6.217z" fill="#2F4DE2" fill-opacity=".35"/><path d="M158.537 25.601a60.1 60.1 0 00-5.964 0c-7.692.383-14.759 2.621-22.598 6.264-7.619 3.54-16.464 8.653-27.618 15.101l-.02.011-.633.366-.02.012c-11.154 6.448-20 11.561-26.87 16.397-7.07 4.976-12.54 9.985-16.717 16.464a60.212 60.212 0 00-2.982 5.17c-3.515 6.861-5.112 14.108-5.881 22.726-.748 8.377-.748 18.603-.748 31.499v.778c0 12.896 0 23.122.748 31.499.769 8.618 2.366 15.865 5.881 22.726a60.152 60.152 0 002.982 5.17c4.177 6.479 9.646 11.487 16.716 16.464 6.871 4.836 15.718 9.95 26.872 16.397l.019.011.633.366.019.012c11.155 6.448 20 11.561 27.619 15.101 7.839 3.643 14.906 5.881 22.598 6.264 1.987.098 3.977.098 5.964 0 7.692-.383 14.759-2.621 22.598-6.264 7.619-3.54 16.465-8.653 27.619-15.101l.02-.012.632-.366.017-.009c11.156-6.449 20.002-11.563 26.874-16.399 7.07-4.977 12.54-9.985 16.716-16.464a60.13 60.13 0 002.982-5.17c3.515-6.861 5.112-14.108 5.882-22.726.747-8.377.747-18.604.747-31.5v-.777c0-12.896 0-23.122-.747-31.499-.77-8.618-2.367-15.865-5.882-22.726a60.19 60.19 0 00-2.982-5.17c-4.176-6.479-9.646-11.487-16.716-16.464-6.871-4.836-15.717-9.95-26.871-16.397l-.02-.012-.633-.366-.019-.01c-11.155-6.449-20-11.562-27.619-15.102-7.839-3.643-14.906-5.881-22.598-6.264z" stroke="url(#paint1_linear_1363_39024)" stroke-linecap="round"/></g><g filter="url(#filter1_d_1363_39024)"><path fill-rule="evenodd" clip-rule="evenodd" d="M135.12 92.005c4.964-1.332 10.752-1.33 19.235-1.327h2.402c8.482-.003 14.27-.005 19.234 1.327a38.914 38.914 0 0127.499 27.533c1.33 4.97 1.328 10.766 1.325 19.259v2.404c.003 8.494.005 14.289-1.325 19.259a38.914 38.914 0 01-27.499 27.533c-4.964 1.332-10.752 1.33-19.234 1.327h-2.402c-8.483.003-14.271.005-19.235-1.327a38.91 38.91 0 01-27.498-27.533c-1.331-4.97-1.329-10.765-1.326-19.259v-2.404c-.003-8.493-.005-14.289 1.326-19.259a38.911 38.911 0 0127.498-27.533zm4.026 15.044c2.718-.729 6.265-.796 16.41-.796s13.691.067 16.409.796a23.349 23.349 0 0116.499 16.52c.729 2.721.795 6.273.795 16.43 0 10.158-.066 13.709-.795 16.43a23.347 23.347 0 01-16.499 16.52c-2.718.729-6.264.796-16.409.796s-13.692-.067-16.41-.796a23.349 23.349 0 01-16.499-16.52c-.728-2.721-.795-6.272-.795-16.43 0-10.157.067-13.709.795-16.43a23.35 23.35 0 0116.499-16.52z" fill="url(#paint2_linear_1363_39024)"/></g><defs><linearGradient id="paint0_linear_1363_39024" x1="0" y1="177.381" x2="159.06" y2="25.296" gradientUnits="userSpaceOnUse"><stop stop-color="#2F4DE2"/><stop offset="1" stop-color="#2F4DE2"/></linearGradient><linearGradient id="paint1_linear_1363_39024" x1="48.986" y1="26.027" x2="276.518" y2="238.563" gradientUnits="userSpaceOnUse"><stop stop-color="#fff" stop-opacity=".25"/><stop offset="1" stop-color="#fff" stop-opacity="0"/></linearGradient><linearGradient id="paint2_linear_1363_39024" x1="156.385" y1="210.336" x2="292.524" y2="77.052" gradientUnits="userSpaceOnUse"><stop stop-color="#fff"/><stop offset="1" stop-color="#fff" stop-opacity=".2"/></linearGradient><filter id="filter0_b_1363_39024" x="23.986" y="1.027" width="263.138" height="277.945" filterUnits="userSpaceOnUse" color-interpolation-filters="sRGB"><feFlood flood-opacity="0" result="BackgroundImageFix"/><feGaussianBlur in="BackgroundImage" stdDeviation="12"/><feComposite in2="SourceAlpha" operator="in" result="effect1_backgroundBlur_1363_39024"/><feBlend in="SourceGraphic" in2="effect1_backgroundBlur_1363_39024" result="shape"/></filter><filter id="filter1_d_1363_39024" x="103.04" y="87.422" width="111.543" height="111.666" filterUnits="userSpaceOnUse" color-interpolation-filters="sRGB"><feFlood flood-opacity="0" result="BackgroundImageFix"/><feColorMatrix in="SourceAlpha" values="0 0 0 0 0 0 0 0 0 0 0 0 0 0 0 0 0 0 127 0" result="hardAlpha"/><feOffset dx="3.256" dy="3.256"/><feGaussianBlur stdDeviation="3.256"/><feColorMatrix values="0 0 0 0 0.8 0 0 0 0 0.156863 0 0 0 0 0.32549 0 0 0 0.5 0"/><feBlend in2="BackgroundImageFix" result="effect1_dropShadow_1363_39024"/><feBlend in="SourceGraphic" in2="effect1_dropShadow_1363_39024" result="shape"/></filter></defs></svg>