<svg width="280" height="280" fill="none" xmlns="http://www.w3.org/2000/svg"><g clip-path="url(#clip0_1363_39005)"><path fill-rule="evenodd" clip-rule="evenodd" d="M67.053 72.721c9.736-2.658 17.368-4.742 23.599-5.727 6.358-1.005 11.737-.955 16.844 1.042a31.42 31.42 0 018.551 5.03c4.251 3.507 6.983 8.229 9.308 14.342 2.278 5.99 4.323 13.766 6.931 23.686l.129.49c2.608 9.92 4.653 17.696 5.619 24.044.986 6.479.937 11.96-1.024 17.163a32.332 32.332 0 01-4.937 8.713c-3.443 4.331-8.077 7.115-14.076 9.485-5.879 2.321-13.512 4.405-23.248 7.064l-.48.131c-9.736 2.658-17.368 4.742-23.598 5.727-6.359 1.005-11.738.955-16.845-1.042a31.425 31.425 0 01-8.55-5.03c-4.251-3.507-6.983-8.229-9.308-14.342-2.278-5.99-4.323-13.766-6.932-23.686l-.128-.489c-2.609-9.921-4.653-17.697-5.62-24.045-.986-6.479-.936-11.96 1.024-17.163A32.315 32.315 0 0129.25 89.4c3.443-4.331 8.077-7.115 14.077-9.485 5.879-2.321 13.51-4.405 23.247-7.064l.48-.13zM77.536 97.36c-.589-2.238-2.846-3.565-5.042-2.966-2.196.6-3.499 2.9-2.91 5.137l14.203 54.016c.588 2.238 2.845 3.565 5.041 2.966 2.196-.6 3.5-2.9 2.91-5.137L77.537 97.359zm26.887 15.816c-.589-2.237-2.846-3.565-5.042-2.966-2.195.6-3.499 2.9-2.91 5.137l8.522 32.41c.588 2.237 2.845 3.565 5.041 2.966 2.196-.6 3.499-2.9 2.911-5.137l-8.522-32.41zM64.852 135.56c-.588-2.238-2.846-3.566-5.041-2.966-2.196.6-3.5 2.9-2.911 5.137l5.681 21.606c.588 2.238 2.845 3.566 5.041 2.966 2.196-.6 3.5-2.9 2.911-5.137l-5.681-21.606z" fill="url(#paint0_linear_1363_39005)"/></g><g clip-path="url(#clip1_1363_39005)"><g filter="url(#filter0_b_1363_39005)" clip-rule="evenodd"><path fill-rule="evenodd" d="M168.495 51.855c16.309 4.467 29.094 7.968 38.943 11.866 10.051 3.977 17.815 8.649 23.586 15.913a54.262 54.262 0 018.278 14.608c3.289 8.724 3.377 17.91 1.732 28.768-1.611 10.639-5.028 23.671-9.386 40.295l-.215.82c-4.358 16.624-7.774 29.655-11.584 39.693-3.887 10.243-8.458 18.153-15.574 24.028a52.519 52.519 0 01-14.316 8.421c-8.551 3.342-17.56 3.419-28.21 1.728-10.436-1.658-23.221-5.159-39.531-9.625l-.804-.221c-16.309-4.466-29.094-7.967-38.943-11.865-10.05-3.978-17.815-8.649-23.585-15.913a54.246 54.246 0 01-8.278-14.608c-3.29-8.724-3.378-17.91-1.733-28.768 1.611-10.64 5.028-23.671 9.386-40.295l.215-.819c4.358-16.625 7.775-29.656 11.584-39.694 3.887-10.243 8.458-18.154 15.574-24.028a52.525 52.525 0 0114.316-8.42c8.551-3.343 17.56-3.42 28.21-1.729 10.437 1.658 23.221 5.159 39.531 9.625l.804.22z" fill="#2F4DE2" fill-opacity=".35"/><path d="M168.495 51.855c16.309 4.467 29.094 7.968 38.943 11.866 10.051 3.977 17.815 8.649 23.586 15.913a54.262 54.262 0 018.278 14.608c3.289 8.724 3.377 17.91 1.732 28.768-1.611 10.639-5.028 23.671-9.386 40.295l-.215.82c-4.358 16.624-7.774 29.655-11.584 39.693-3.887 10.243-8.458 18.153-15.574 24.028a52.519 52.519 0 01-14.316 8.421c-8.551 3.342-17.56 3.419-28.21 1.728-10.436-1.658-23.221-5.159-39.531-9.625l-.804-.221c-16.309-4.466-29.094-7.967-38.943-11.865-10.05-3.978-17.815-8.649-23.585-15.913a54.246 54.246 0 01-8.278-14.608c-3.29-8.724-3.378-17.91-1.733-28.768 1.611-10.64 5.028-23.671 9.386-40.295l.215-.819c4.358-16.625 7.775-29.656 11.584-39.694 3.887-10.243 8.458-18.154 15.574-24.028a52.525 52.525 0 0114.316-8.42c8.551-3.343 17.56-3.42 28.21-1.729 10.437 1.658 23.221 5.159 39.531 9.625l.804.22z" stroke="url(#paint1_linear_1363_39005)" stroke-linecap="round"/></g><g filter="url(#filter1_d_1363_39005)"><path fill-rule="evenodd" clip-rule="evenodd" d="M163.481 96.566c.983-3.75-1.202-7.606-4.881-8.614-3.678-1.007-7.457 1.216-8.44 4.966l-23.731 90.52c-.983 3.749 1.202 7.605 4.88 8.613 3.679 1.007 7.457-1.216 8.44-4.965l23.732-90.52zm26.03 45.936c.983-3.75-1.202-7.606-4.881-8.613-3.678-1.008-7.457 1.215-8.44 4.965l-14.239 54.312c-.983 3.749 1.202 7.605 4.881 8.613 3.678 1.007 7.457-1.216 8.44-4.965l14.239-54.312zm-75.791-1.353c.983-3.749-1.203-7.605-4.881-8.613-3.678-1.007-7.457 1.216-8.44 4.965l-9.493 36.208c-.983 3.75 1.202 7.606 4.88 8.613 3.68 1.008 7.458-1.215 8.441-4.965l9.493-36.208z" fill="url(#paint2_linear_1363_39005)"/></g></g><defs><linearGradient id="paint0_linear_1363_39005" x1="42.82" y1="192.232" x2="123.486" y2="61.754" gradientUnits="userSpaceOnUse"><stop stop-color="#2F4DE2"/><stop offset="1" stop-color="#2441D1"/></linearGradient><linearGradient id="paint1_linear_1363_39005" x1="81.507" y1="28.033" x2="212.107" y2="249.79" gradientUnits="userSpaceOnUse"><stop stop-color="#fff" stop-opacity=".25"/><stop offset="1" stop-color="#fff" stop-opacity="0"/></linearGradient><linearGradient id="paint2_linear_1363_39005" x1="126.205" y1="214.422" x2="294.945" y2="140.656" gradientUnits="userSpaceOnUse"><stop stop-color="#fff"/><stop offset="1" stop-color="#fff" stop-opacity=".2"/></linearGradient><clipPath id="clip0_1363_39005"><path fill="#fff" transform="matrix(.96469 -.2634 .2543 .96713 0 78.004)" d="M0 0h131.892v134.045H0z"/></clipPath><clipPath id="clip1_1363_39005"><path fill="#fff" transform="matrix(.96449 .26413 -.2536 .96731 66.865 2.193)" d="M0 0h220.983v224.59H0z"/></clipPath><filter id="filter0_b_1363_39005" x="23.328" y="16.424" width="243.253" height="247.158" filterUnits="userSpaceOnUse" color-interpolation-filters="sRGB"><feFlood flood-opacity="0" result="BackgroundImageFix"/><feGaussianBlur in="BackgroundImage" stdDeviation="12"/><feComposite in2="SourceAlpha" operator="in" result="effect1_backgroundBlur_1363_39005"/><feBlend in="SourceGraphic" in2="effect1_backgroundBlur_1363_39005" result="shape"/></filter><filter id="filter1_d_1363_39005" x="87.671" y="84.711" width="115.075" height="130.311" filterUnits="userSpaceOnUse" color-interpolation-filters="sRGB"><feFlood flood-opacity="0" result="BackgroundImageFix"/><feColorMatrix in="SourceAlpha" values="0 0 0 0 0 0 0 0 0 0 0 0 0 0 0 0 0 0 127 0" result="hardAlpha"/><feOffset dx="5" dy="5"/><feGaussianBlur stdDeviation="4"/><feColorMatrix values="0 0 0 0 0.176471 0 0 0 0 0.556863 0 0 0 0 0.678431 0 0 0 0.5 0"/><feBlend in2="BackgroundImageFix" result="effect1_dropShadow_1363_39005"/><feBlend in="SourceGraphic" in2="effect1_dropShadow_1363_39005" result="shape"/></filter></defs></svg>