<svg width="280" height="280" fill="none" xmlns="http://www.w3.org/2000/svg"><path d="M85.07 123.057c30.203 0 54.687 24.386 54.687 54.468 0 30.083-24.484 54.469-54.687 54.469-30.203 0-54.688-24.386-54.688-54.469 0-30.082 24.485-54.468 54.688-54.468z" fill="url(#paint0_linear_1363_31896)"/><path d="M39.68 229.152a4.527 4.527 0 000-6.42 4.571 4.571 0 00-6.444 0L8.93 246.94a4.526 4.526 0 000 6.419 4.57 4.57 0 006.445 0l24.306-24.207z" fill="url(#paint1_linear_1363_31896)"/><g filter="url(#filter0_b_1363_31896)"><path fill-rule="evenodd" clip-rule="evenodd" d="M58.334 122.57c0-48.132 39.175-87.15 87.5-87.15 48.324 0 87.5 39.018 87.5 87.15 0 48.132-39.176 87.15-87.5 87.15-48.325 0-87.5-39.018-87.5-87.15z" fill="#2F4DE2" fill-opacity=".35"/><path d="M218.455 194.901a7.313 7.313 0 0110.312 0l38.888 38.733a7.242 7.242 0 010 10.271 7.313 7.313 0 01-10.312 0l-38.888-38.733a7.243 7.243 0 010-10.271z" fill="#2F4DE2" fill-opacity=".35"/><path clip-rule="evenodd" d="M58.334 122.57c0-48.132 39.175-87.15 87.5-87.15 48.324 0 87.5 39.018 87.5 87.15 0 48.132-39.176 87.15-87.5 87.15-48.325 0-87.5-39.018-87.5-87.15z" stroke="url(#paint2_linear_1363_31896)" stroke-linecap="round"/><path d="M218.455 194.901a7.313 7.313 0 0110.312 0l38.888 38.733a7.242 7.242 0 010 10.271 7.313 7.313 0 01-10.312 0l-38.888-38.733a7.243 7.243 0 010-10.271z" stroke="url(#paint3_linear_1363_31896)" stroke-linecap="round"/></g><g filter="url(#filter1_d_1363_31896)"><path fill-rule="evenodd" clip-rule="evenodd" d="M135.708 63.93c.63 3.962-2.083 7.682-6.061 8.31-17.68 2.788-31.546 16.6-34.347 34.209-.63 3.962-4.365 6.664-8.342 6.037-3.978-.628-6.692-4.348-6.061-8.309 3.788-23.825 22.549-42.51 46.469-46.284 3.977-.627 7.712 2.076 8.342 6.037z" fill="url(#paint4_linear_1363_31896)"/></g><defs><linearGradient id="paint0_linear_1363_31896" x1="7.596" y1="123.057" x2="136.274" y2="258.01" gradientUnits="userSpaceOnUse"><stop stop-color="#2F4DE2"/><stop offset="1" stop-color="#1A37C6"/></linearGradient><linearGradient id="paint1_linear_1363_31896" x1="7.596" y1="123.057" x2="136.274" y2="258.01" gradientUnits="userSpaceOnUse"><stop stop-color="#2F4DE2"/><stop offset="1" stop-color="#1A37C6"/></linearGradient><linearGradient id="paint2_linear_1363_31896" x1="58.334" y1="35.42" x2="269.051" y2="246.769" gradientUnits="userSpaceOnUse"><stop stop-color="#fff" stop-opacity=".25"/><stop offset="1" stop-color="#fff" stop-opacity="0"/></linearGradient><linearGradient id="paint3_linear_1363_31896" x1="58.334" y1="35.42" x2="269.051" y2="246.769" gradientUnits="userSpaceOnUse"><stop stop-color="#fff" stop-opacity=".25"/><stop offset="1" stop-color="#fff" stop-opacity="0"/></linearGradient><linearGradient id="paint4_linear_1363_31896" x1="108.766" y1="124.246" x2="184.367" y2="49.84" gradientUnits="userSpaceOnUse"><stop stop-color="#fff"/><stop offset="1" stop-color="#fff" stop-opacity=".2"/></linearGradient><filter id="filter0_b_1363_31896" x="33.834" y="10.92" width="260.458" height="259.611" filterUnits="userSpaceOnUse" color-interpolation-filters="sRGB"><feFlood flood-opacity="0" result="BackgroundImageFix"/><feGaussianBlur in="BackgroundImage" stdDeviation="12"/><feComposite in2="SourceAlpha" operator="in" result="effect1_backgroundBlur_1363_31896"/><feBlend in="SourceGraphic" in2="effect1_backgroundBlur_1363_31896" result="shape"/></filter><filter id="filter1_d_1363_31896" x="77.55" y="54.547" width="68.017" height="67.797" filterUnits="userSpaceOnUse" color-interpolation-filters="sRGB"><feFlood flood-opacity="0" result="BackgroundImageFix"/><feColorMatrix in="SourceAlpha" values="0 0 0 0 0 0 0 0 0 0 0 0 0 0 0 0 0 0 127 0" result="hardAlpha"/><feOffset dx="3.256" dy="3.256"/><feGaussianBlur stdDeviation="3.256"/><feColorMatrix values="0 0 0 0 0.184314 0 0 0 0 0.301961 0 0 0 0 0.886275 0 0 0 0.3 0"/><feBlend in2="BackgroundImageFix" result="effect1_dropShadow_1363_31896"/><feBlend in="SourceGraphic" in2="effect1_dropShadow_1363_31896" result="shape"/></filter></defs></svg>