<svg width="280" height="280" fill="none" xmlns="http://www.w3.org/2000/svg"><rect x="115.294" width="164.706" height="166.667" rx="10" fill="url(#paint0_linear_1363_31567)"/><g filter="url(#filter0_b_1363_31567)" clip-rule="evenodd"><path fill-rule="evenodd" d="M131.268 38.334h.994c20.166 0 35.973 0 48.514 1.375 12.798 1.403 23.168 4.317 32.022 10.827a63.534 63.534 0 0113.968 14.134c6.432 8.96 9.313 19.452 10.699 32.403 1.359 12.69 1.359 28.685 1.359 49.09v1.007c0 20.406 0 36.402-1.359 49.092-1.386 12.95-4.267 23.443-10.699 32.403a63.558 63.558 0 01-13.968 14.134c-8.854 6.509-19.224 9.424-32.022 10.827-12.541 1.375-28.348 1.375-48.513 1.375h-.995c-20.166 0-35.974 0-48.514-1.375-12.798-1.403-23.168-4.318-32.022-10.827a63.541 63.541 0 01-13.968-14.134c-6.432-8.959-9.313-19.453-10.7-32.403-1.358-12.69-1.358-28.686-1.358-49.092v-1.005c0-20.406 0-36.402 1.359-49.092 1.386-12.95 4.267-23.444 10.7-32.403a63.517 63.517 0 0113.967-14.134c8.854-6.51 19.224-9.424 32.022-10.827 12.54-1.375 28.348-1.375 48.514-1.375z" fill="#2F4DE2" fill-opacity=".35"/><path d="M131.268 38.334h.994c20.166 0 35.973 0 48.514 1.375 12.798 1.403 23.168 4.317 32.022 10.827a63.534 63.534 0 0113.968 14.134c6.432 8.96 9.313 19.452 10.699 32.403 1.359 12.69 1.359 28.685 1.359 49.09v1.007c0 20.406 0 36.402-1.359 49.092-1.386 12.95-4.267 23.443-10.699 32.403a63.558 63.558 0 01-13.968 14.134c-8.854 6.509-19.224 9.424-32.022 10.827-12.541 1.375-28.348 1.375-48.513 1.375h-.995c-20.166 0-35.974 0-48.514-1.375-12.798-1.403-23.168-4.318-32.022-10.827a63.541 63.541 0 01-13.968-14.134c-6.432-8.959-9.313-19.453-10.7-32.403-1.358-12.69-1.358-28.686-1.358-49.092v-1.005c0-20.406 0-36.402 1.359-49.092 1.386-12.95 4.267-23.444 10.7-32.403a63.517 63.517 0 0113.967-14.134c8.854-6.51 19.224-9.424 32.022-10.827 12.54-1.375 28.348-1.375 48.514-1.375z" stroke="url(#paint1_linear_1363_31567)" stroke-linecap="round"/></g><g filter="url(#filter1_d_1363_31567)"><path fill-rule="evenodd" clip-rule="evenodd" d="M98.823 82.779h43.752a8.23 8.23 0 01.322 0h43.77c4.548 0 8.235 3.73 8.235 8.333s-3.687 8.334-8.235 8.334h-37.171L130.83 193.89h33.876c4.548 0 8.235 3.731 8.235 8.333 0 4.603-3.687 8.334-8.235 8.334h-43.752a8.641 8.641 0 01-.322 0h-43.77c-4.547 0-8.235-3.731-8.235-8.334 0-4.602 3.688-8.333 8.236-8.333h37.17L132.7 99.446H98.824c-4.549 0-8.236-3.731-8.236-8.334 0-4.602 3.687-8.333 8.236-8.333z" fill="url(#paint2_linear_1363_31567)"/></g><defs><linearGradient id="paint0_linear_1363_31567" x1="115.294" y1="166.667" x2="285.412" y2="5.721" gradientUnits="userSpaceOnUse"><stop stop-color="#2F4DE2"/><stop offset="1" stop-color="#536DF8"/></linearGradient><linearGradient id="paint1_linear_1363_31567" x1="24.706" y1="38.334" x2="241.465" y2="252.325" gradientUnits="userSpaceOnUse"><stop stop-color="#fff" stop-opacity=".25"/><stop offset="1" stop-color="#fff" stop-opacity="0"/></linearGradient><linearGradient id="paint2_linear_1363_31567" x1="132.828" y1="237.781" x2="309.132" y2="66.997" gradientUnits="userSpaceOnUse"><stop stop-color="#fff"/><stop offset="1" stop-color="#fff" stop-opacity=".2"/></linearGradient><filter id="filter0_b_1363_31567" x=".206" y="13.834" width="263.118" height="265.666" filterUnits="userSpaceOnUse" color-interpolation-filters="sRGB"><feFlood flood-opacity="0" result="BackgroundImageFix"/><feGaussianBlur in="BackgroundImage" stdDeviation="12"/><feComposite in2="SourceAlpha" operator="in" result="effect1_backgroundBlur_1363_31567"/><feBlend in="SourceGraphic" in2="effect1_backgroundBlur_1363_31567" result="shape"/></filter><filter id="filter1_d_1363_31567" x="65.372" y="79.522" width="139.298" height="140.805" filterUnits="userSpaceOnUse" color-interpolation-filters="sRGB"><feFlood flood-opacity="0" result="BackgroundImageFix"/><feColorMatrix in="SourceAlpha" values="0 0 0 0 0 0 0 0 0 0 0 0 0 0 0 0 0 0 127 0" result="hardAlpha"/><feOffset dx="3.256" dy="3.256"/><feGaussianBlur stdDeviation="3.256"/><feColorMatrix values="0 0 0 0 0.184314 0 0 0 0 0.301961 0 0 0 0 0.886275 0 0 0 0.2 0"/><feBlend in2="BackgroundImageFix" result="effect1_dropShadow_1363_31567"/><feBlend in="SourceGraphic" in2="effect1_dropShadow_1363_31567" result="shape"/></filter></defs></svg>