<svg width="280" height="280" fill="none" xmlns="http://www.w3.org/2000/svg"><ellipse cx="77.778" cy="99.506" rx="77.778" ry="77.875" fill="url(#paint0_linear_1363_31636)"/><g filter="url(#filter0_b_1363_31636)" clip-rule="evenodd"><path fill-rule="evenodd" d="M259.259 140.001c0 57.346-46.429 103.834-103.703 103.834S51.852 197.347 51.852 140.001c0-57.345 46.43-103.833 103.704-103.833 57.274 0 103.703 46.488 103.703 103.833z" fill="#2F4DE2" fill-opacity=".35"/><path d="M259.259 140.001c0 57.346-46.429 103.834-103.703 103.834S51.852 197.347 51.852 140.001c0-57.345 46.43-103.833 103.704-103.833 57.274 0 103.703 46.488 103.703 103.833z" stroke="url(#paint1_linear_1363_31636)" stroke-linecap="round"/></g><g filter="url(#filter1_d_1363_31636)"><path fill-rule="evenodd" clip-rule="evenodd" d="M155.556 121.83c4.295 0 7.778 3.486 7.778 7.787v62.3c0 4.301-3.483 7.788-7.778 7.788-4.296 0-7.778-3.487-7.778-7.788v-62.3c0-4.301 3.482-7.787 7.778-7.787zm0-12.979c5.727 0 10.37-4.649 10.37-10.384 0-5.734-4.643-10.383-10.37-10.383-5.727 0-10.37 4.649-10.37 10.383 0 5.735 4.643 10.384 10.37 10.384z" fill="url(#paint2_linear_1363_31636)"/></g><defs><linearGradient id="paint0_linear_1363_31636" x1="0" y1="177.381" x2="159.06" y2="25.296" gradientUnits="userSpaceOnUse"><stop stop-color="#2F4DE2"/><stop offset="1" stop-color="#4E6AF5"/></linearGradient><linearGradient id="paint1_linear_1363_31636" x1="51.852" y1="36.168" x2="259.624" y2="243.47" gradientUnits="userSpaceOnUse"><stop stop-color="#fff" stop-opacity=".25"/><stop offset="1" stop-color="#fff" stop-opacity="0"/></linearGradient><linearGradient id="paint2_linear_1363_31636" x1="155.731" y1="223.485" x2="210.059" y2="213.589" gradientUnits="userSpaceOnUse"><stop stop-color="#fff"/><stop offset="1" stop-color="#fff" stop-opacity=".2"/></linearGradient><filter id="filter0_b_1363_31636" x="27.352" y="11.668" width="256.407" height="256.666" filterUnits="userSpaceOnUse" color-interpolation-filters="sRGB"><feFlood flood-opacity="0" result="BackgroundImageFix"/><feGaussianBlur in="BackgroundImage" stdDeviation="12"/><feComposite in2="SourceAlpha" operator="in" result="effect1_backgroundBlur_1363_31636"/><feBlend in="SourceGraphic" in2="effect1_backgroundBlur_1363_31636" result="shape"/></filter><filter id="filter1_d_1363_31636" x="141.93" y="84.828" width="33.764" height="124.644" filterUnits="userSpaceOnUse" color-interpolation-filters="sRGB"><feFlood flood-opacity="0" result="BackgroundImageFix"/><feColorMatrix in="SourceAlpha" values="0 0 0 0 0 0 0 0 0 0 0 0 0 0 0 0 0 0 127 0" result="hardAlpha"/><feOffset dx="3.256" dy="3.256"/><feGaussianBlur stdDeviation="3.256"/><feColorMatrix values="0 0 0 0 0.184314 0 0 0 0 0.301961 0 0 0 0 0.886275 0 0 0 0.2 0"/><feBlend in2="BackgroundImageFix" result="effect1_dropShadow_1363_31636"/><feBlend in="SourceGraphic" in2="effect1_dropShadow_1363_31636" result="shape"/></filter></defs></svg>