<svg width="280" height="280" fill="none" xmlns="http://www.w3.org/2000/svg"><ellipse cx="77.778" cy="99.506" rx="77.778" ry="77.875" fill="url(#paint0_linear_1363_38987)"/><g filter="url(#filter0_b_1363_38987)"><path fill-rule="evenodd" clip-rule="evenodd" d="M176.297 233.451h-41.482c-19.302 0-28.953 0-36.764-2.541a51.885 51.885 0 01-33.29-33.333c-2.538-7.82-2.538-38.25-2.538-57.576V74.522c0-9.49 0-14.234 1.494-17.894 1.482-3.633 3.966-6.565 7.045-8.315 3.102-1.762 7.123-1.762 15.164-1.762 20.104 0 30.156 0 37.911 4.407 7.697 4.374 13.907 11.702 17.614 20.785l.098.24c3.518 8.617 10.933 16.085 20.231 16.135 20.16.109 45.319.568 51.281 2.507a51.883 51.883 0 0133.29 33.333c2.538 7.82 2.538 17.483 2.538 36.809 0 19.327 0 28.99-2.538 36.81a51.885 51.885 0 01-33.29 33.333c-7.811 2.541-17.462 2.541-36.764 2.541z" fill="#2F4DE2" fill-opacity=".35"/><path d="M134.815 233.951h41.62c19.172 0 28.894 0 36.78-2.566a52.384 52.384 0 0033.612-33.653c2.562-7.896 2.562-17.631 2.562-36.827v-.275c0-19.197 0-28.931-2.562-36.827a52.384 52.384 0 00-33.612-33.653c-1.551-.505-4.294-.9-7.802-1.218-3.524-.318-7.867-.561-12.649-.747-9.563-.37-20.9-.513-30.981-.567-9.014-.049-16.293-7.304-19.771-15.825l-.098-.239c-3.744-9.175-10.025-16.596-17.83-21.031-3.963-2.253-8.494-3.365-14.526-3.92-6.018-.552-13.576-.552-23.605-.552H85.9c-3.999 0-7.033 0-9.454.222-2.434.224-4.294.675-5.931 1.606-3.187 1.81-5.741 4.835-7.261 8.56-.776 1.901-1.155 4.063-1.343 6.917-.188 2.846-.188 6.419-.188 11.147v65.501c0 9.661 0 22.106.317 33.114.159 5.505.397 10.656.755 14.923.357 4.253.835 7.674 1.49 9.691a52.384 52.384 0 0033.612 33.653c7.886 2.566 17.608 2.566 36.78 2.566h.138z" stroke="url(#paint1_linear_1363_38987)" stroke-linecap="round"/></g><g filter="url(#filter1_d_1363_38987)"><path d="M114.075 173.746c-4.296 0-7.778 3.487-7.778 7.788s3.482 7.787 7.778 7.787h82.963c4.295 0 7.777-3.486 7.777-7.787s-3.482-7.788-7.777-7.788h-82.963z" fill="url(#paint2_linear_1363_38987)"/></g><defs><linearGradient id="paint0_linear_1363_38987" x1="0" y1="177.381" x2="159.06" y2="25.296" gradientUnits="userSpaceOnUse"><stop stop-color="#2F4DE2"/><stop offset="1" stop-color="#4A69FF"/></linearGradient><linearGradient id="paint1_linear_1363_38987" x1="62.223" y1="46.551" x2="249.217" y2="233.122" gradientUnits="userSpaceOnUse"><stop stop-color="#fff" stop-opacity=".25"/><stop offset="1" stop-color="#fff" stop-opacity="0"/></linearGradient><linearGradient id="paint2_linear_1363_38987" x1="156.386" y1="192.639" x2="163.145" y2="150.729" gradientUnits="userSpaceOnUse"><stop stop-color="#fff"/><stop offset="1" stop-color="#fff" stop-opacity=".2"/></linearGradient><filter id="filter0_b_1363_38987" x="37.223" y="21.551" width="236.667" height="236.9" filterUnits="userSpaceOnUse" color-interpolation-filters="sRGB"><feFlood flood-opacity="0" result="BackgroundImageFix"/><feGaussianBlur in="BackgroundImage" stdDeviation="12"/><feComposite in2="SourceAlpha" operator="in" result="effect1_backgroundBlur_1363_38987"/><feBlend in="SourceGraphic" in2="effect1_backgroundBlur_1363_38987" result="shape"/></filter><filter id="filter1_d_1363_38987" x="103.297" y="170.746" width="114.519" height="31.574" filterUnits="userSpaceOnUse" color-interpolation-filters="sRGB"><feFlood flood-opacity="0" result="BackgroundImageFix"/><feColorMatrix in="SourceAlpha" values="0 0 0 0 0 0 0 0 0 0 0 0 0 0 0 0 0 0 127 0" result="hardAlpha"/><feOffset dx="5" dy="5"/><feGaussianBlur stdDeviation="4"/><feColorMatrix values="0 0 0 0 0.184314 0 0 0 0 0.301961 0 0 0 0 0.886275 0 0 0 0.2 0"/><feBlend in2="BackgroundImageFix" result="effect1_dropShadow_1363_38987"/><feBlend in="SourceGraphic" in2="effect1_dropShadow_1363_38987" result="shape"/></filter></defs></svg>