<svg width="18" height="18" fill="none" xmlns="http://www.w3.org/2000/svg"><path fill-rule="evenodd" clip-rule="evenodd" d="M12.885 2.558a1.808 1.808 0 013.615 0 1.808 1.808 0 01-3.615 0zm-2.887 7.761l2.167-2.796-.03.015a.562.562 0 00-.397-.893.576.576 0 00-.525.233L9.398 9.225 7.32 7.59a.592.592 0 00-.428-.12.581.581 0 00-.375.224l-2.219 2.889-.045.067a.56.56 0 00.157.713.63.63 0 00.345.112.532.532 0 00.442-.225L7.08 8.827l2.137 1.606.068.044c.24.127.54.068.713-.158zm1.59-8.234c-.03.188-.045.375-.045.563a3.048 3.048 0 003.045 3.051c.187 0 .367-.021.555-.051V11.7c0 2.543-1.5 4.05-4.05 4.05H5.55C3 15.75 1.5 14.243 1.5 11.7V6.15C1.5 3.6 3 2.085 5.55 2.085h6.038z" fill="#fff"/></svg>