<svg width="115" height="34" fill="none" xmlns="http://www.w3.org/2000/svg"><g clip-path="url(#clip0_541_40432)"><g filter="url(#filter0_i_541_40432)"><path d="M110.295 34H4.006C1.798 34 0 32.191 0 29.977V4.017A4.016 4.016 0 014.006 0h106.289c2.207 0 4.069 1.802 4.069 4.017v25.96c0 2.214-1.862 4.023-4.069 4.023z" fill="#2F4DE2"/></g><path d="M25.523 16.816c-.025-2.74 2.236-4.072 2.339-4.134-1.28-1.873-3.264-2.129-3.961-2.149-1.667-.176-3.283 1-4.132 1-.866 0-2.173-.983-3.581-.954-1.813.028-3.51 1.081-4.44 2.717-1.92 3.334-.487 8.234 1.352 10.93.92 1.32 1.995 2.794 3.402 2.742 1.376-.057 1.89-.88 3.552-.88 1.646 0 2.129.88 3.564.847 1.477-.024 2.407-1.326 3.295-2.658 1.063-1.513 1.49-3.003 1.507-3.08-.035-.012-2.87-1.097-2.897-4.38zM22.812 8.76c.74-.93 1.247-2.193 1.106-3.476-1.072.048-2.412.744-3.183 1.653-.683.8-1.293 2.113-1.136 3.347 1.204.09 2.44-.61 3.213-1.524zm22.633 18.018h-1.923l-1.054-3.322h-3.663L37.8 26.777h-1.873l3.629-11.312h2.241l3.647 11.312zm-3.295-4.716l-.953-2.954c-.1-.302-.29-1.013-.569-2.131h-.033c-.111.48-.29 1.192-.536 2.13l-.936 2.954h3.027zm12.629.538c0 1.387-.374 2.483-1.121 3.288-.67.717-1.5 1.075-2.492 1.075-1.071 0-1.84-.386-2.309-1.158h-.034v4.297h-1.806v-8.795c0-.872-.023-1.767-.067-2.685h1.589l.1 1.292h.034c.603-.974 1.517-1.46 2.743-1.46.96 0 1.76.38 2.4 1.14.642.762.963 1.764.963 3.005zm-1.84.066c0-.794-.178-1.448-.536-1.964-.39-.537-.915-.805-1.572-.805-.446 0-.85.15-1.212.444-.363.298-.6.686-.711 1.167a2.38 2.38 0 00-.084.553v1.36c0 .593.181 1.094.544 1.503.362.408.834.612 1.413.612.68 0 1.21-.263 1.588-.789.38-.526.57-1.22.57-2.081zm11.189-.066c0 1.387-.373 2.483-1.121 3.288-.669.717-1.5 1.075-2.492 1.075-1.07 0-1.84-.386-2.307-1.158h-.034v4.297h-1.806v-8.795c0-.872-.023-1.767-.067-2.685h1.588l.101 1.292h.034c.601-.974 1.515-1.46 2.743-1.46.958 0 1.758.38 2.4 1.14.64.762.961 1.764.961 3.005zm-1.84.066c0-.794-.178-1.448-.536-1.964-.39-.537-.913-.805-1.571-.805-.447 0-.85.15-1.213.444a2.061 2.061 0 00-.71 1.167 2.425 2.425 0 00-.084.553v1.36c0 .593.181 1.094.542 1.503.362.407.834.612 1.415.612.68 0 1.21-.263 1.588-.789.38-.526.57-1.22.57-2.081zm12.294.94c0 .962-.333 1.745-1.001 2.35-.735.66-1.757.99-3.071.99-1.213 0-2.186-.235-2.922-.705l.418-1.51a4.938 4.938 0 002.611.722c.68 0 1.21-.154 1.59-.462.379-.308.568-.721.568-1.236 0-.46-.156-.846-.469-1.16-.31-.313-.83-.605-1.555-.874-1.974-.739-2.96-1.82-2.96-3.244 0-.93.346-1.692 1.038-2.285.69-.595 1.61-.891 2.76-.891 1.026 0 1.878.18 2.558.537l-.451 1.477c-.636-.347-1.354-.52-2.158-.52-.635 0-1.132.157-1.487.47-.301.28-.452.62-.452 1.024 0 .447.172.817.518 1.108.3.269.847.56 1.64.873.97.392 1.682.85 2.14 1.375.457.524.685 1.18.685 1.961zm5.971-3.624h-1.99v3.96c0 1.007.35 1.51 1.053 1.51.323 0 .59-.028.802-.084l.05 1.376c-.355.134-.824.2-1.404.2-.713 0-1.27-.217-1.673-.654-.4-.436-.603-1.17-.603-2.198V19.98h-1.185v-1.36h1.186v-1.493l1.773-.538v2.031h1.991v1.362zm8.982 2.651c0 1.254-.357 2.283-1.07 3.088-.748.829-1.741 1.242-2.979 1.242-1.193 0-2.142-.397-2.85-1.191-.709-.794-1.063-1.796-1.063-3.004 0-1.264.365-2.3 1.096-3.104.729-.806 1.713-1.209 2.951-1.209 1.193 0 2.153.397 2.877 1.192.693.77 1.038 1.766 1.038 2.986zm-1.873.059c0-.753-.16-1.398-.485-1.936-.379-.651-.92-.976-1.621-.976-.726 0-1.278.326-1.656.976-.325.539-.485 1.194-.485 1.97 0 .752.16 1.397.484 1.934.391.651.937.976 1.64.976.69 0 1.231-.332 1.622-.993.333-.548.5-1.2.5-1.951zm7.744-2.477a3.131 3.131 0 00-.57-.05c-.635 0-1.126.24-1.472.723-.3.425-.451.962-.451 1.61v4.28h-1.805l.016-5.588c0-.94-.022-1.796-.067-2.568h1.573l.066 1.561h.05a2.79 2.79 0 01.903-1.292 2.18 2.18 0 011.305-.437c.167 0 .318.012.452.033v1.728zm8.077 2.099c0 .325-.021.599-.066.822h-5.418c.021.806.283 1.422.786 1.847.457.38 1.047.57 1.772.57.802 0 1.534-.128 2.193-.385l.283 1.258c-.77.336-1.678.504-2.726.504-1.26 0-2.25-.373-2.97-1.116-.718-.744-1.078-1.743-1.078-2.996 0-1.23.334-2.254 1.004-3.07.702-.873 1.65-1.309 2.843-1.309 1.171 0 2.058.436 2.661 1.308.476.693.716 1.55.716 2.567zm-1.722-.47c.012-.537-.106-1.001-.351-1.393-.312-.504-.793-.756-1.439-.756-.59 0-1.07.246-1.438.739-.3.392-.48.862-.534 1.41h3.762zM41.553 8.507c0 1-.3 1.754-.897 2.26-.553.466-1.34.7-2.357.7-.505 0-.937-.022-1.299-.066V5.934c.472-.076.98-.115 1.53-.115.97 0 1.7.212 2.193.635.553.478.83 1.163.83 2.053zm-.937.025c0-.649-.17-1.146-.513-1.493-.342-.345-.842-.519-1.5-.519-.28 0-.518.019-.715.058v4.155c.11.018.309.025.6.025.679 0 1.203-.19 1.573-.568.37-.38.555-.932.555-1.658zm5.9.849c0 .616-.176 1.121-.526 1.517-.368.407-.855.61-1.463.61-.587 0-1.053-.194-1.401-.585-.348-.39-.521-.882-.521-1.476 0-.62.178-1.13.537-1.525.36-.395.842-.593 1.45-.593.587 0 1.058.195 1.415.585.339.379.509.869.509 1.467zm-.921.029c0-.37-.08-.687-.238-.951-.187-.32-.452-.48-.797-.48-.356 0-.627.16-.814.48-.159.264-.238.586-.238.967 0 .37.08.687.238.951.193.32.46.48.806.48.339 0 .605-.163.796-.488.165-.27.247-.59.247-.96zm7.575-2l-1.249 4.008h-.813l-.518-1.74a13.054 13.054 0 01-.32-1.295h-.017a9.51 9.51 0 01-.32 1.295l-.55 1.74h-.823L47.385 7.41h.912l.452 1.904c.109.451.199.88.27 1.287h.017c.066-.335.175-.762.33-1.278l.566-1.913h.724l.543 1.872c.13.457.238.896.32 1.32h.024c.06-.413.151-.852.271-1.32l.485-1.872h.872zm4.604 4.008h-.888V9.123c0-.707-.268-1.061-.805-1.061a.8.8 0 00-.641.291 1.037 1.037 0 00-.247.687v2.377h-.887V8.556c0-.352-.011-.734-.033-1.147h.78l.042.627h.025c.103-.195.257-.356.46-.484.24-.15.51-.225.805-.225.372 0 .682.12.929.363.306.296.46.74.46 1.327v2.4zm2.448 0h-.887V5.572h.887v5.846zm5.226-2.037c0 .616-.175 1.121-.526 1.517-.367.407-.855.61-1.463.61-.587 0-1.054-.194-1.4-.585-.348-.39-.522-.882-.522-1.476 0-.62.179-1.13.538-1.525.36-.395.842-.593 1.45-.593.587 0 1.057.195 1.414.585.34.379.51.869.51 1.467zm-.921.029c0-.37-.08-.687-.238-.951-.186-.32-.452-.48-.796-.48-.357 0-.628.16-.814.48-.16.264-.238.586-.238.967 0 .37.08.687.238.951.192.32.46.48.806.48.339 0 .604-.163.795-.488.165-.27.247-.59.247-.96zm5.218 2.008h-.797l-.066-.462h-.025c-.272.368-.661.553-1.166.553-.377 0-.682-.122-.912-.363a1.14 1.14 0 01-.312-.816c0-.49.203-.863.612-1.122.409-.258.983-.385 1.723-.379v-.074c0-.528-.277-.792-.83-.792-.394 0-.741.1-1.041.297l-.18-.585c.37-.23.829-.346 1.37-.346 1.043 0 1.567.553 1.567 1.658v1.475c0 .4.02.72.057.956zm-.922-1.377v-.618c-.979-.017-1.468.252-1.468.807 0 .21.055.366.17.47a.62.62 0 00.434.157.894.894 0 00.543-.186.759.759 0 00.322-.63zm5.967 1.377h-.788l-.042-.644h-.024c-.252.49-.68.735-1.283.735-.481 0-.882-.19-1.2-.569-.317-.38-.475-.871-.475-1.476 0-.648.172-1.173.517-1.575a1.59 1.59 0 011.233-.56c.536 0 .911.18 1.125.543h.017v-2.3h.888v4.766c0 .39.01.75.032 1.08zm-.92-1.69V9.06a1.015 1.015 0 00-.346-.82.87.87 0 00-.594-.219.91.91 0 00-.78.396c-.19.265-.285.602-.285 1.014 0 .396.09.718.272.965a.913.913 0 00.776.395c.292 0 .525-.11.702-.33a1.1 1.1 0 00.255-.733zm8.513-.347c0 .616-.175 1.121-.526 1.517-.368.407-.854.61-1.463.61-.586 0-1.052-.194-1.401-.585-.348-.39-.521-.882-.521-1.476 0-.62.178-1.13.538-1.525.359-.395.842-.593 1.45-.593.586 0 1.058.195 1.414.585.339.379.509.869.509 1.467zm-.92.029c0-.37-.08-.687-.238-.951-.187-.32-.452-.48-.797-.48-.356 0-.627.16-.814.48-.16.264-.238.586-.238.967 0 .37.08.687.238.951.192.32.46.48.805.48.34 0 .606-.163.797-.488.164-.27.247-.59.247-.96zm5.694 2.008h-.887V9.123c0-.707-.268-1.061-.806-1.061a.797.797 0 00-.64.291 1.033 1.033 0 00-.247.687v2.377h-.888V8.556c0-.352-.01-.734-.032-1.147h.78l.041.627h.025a1.29 1.29 0 01.46-.484 1.5 1.5 0 01.805-.225c.372 0 .682.12.929.363.307.296.46.74.46 1.327v2.4zm5.974-3.34h-.977v1.947c0 .494.173.742.517.742.16 0 .292-.014.396-.042l.023.676c-.175.066-.406.1-.69.1-.35 0-.623-.108-.82-.322-.199-.214-.297-.575-.297-1.08v-2.02h-.584V7.41h.584v-.734l.87-.264v.997h.977v.668h.001zm4.701 3.34h-.89V9.14c0-.719-.267-1.078-.803-1.078-.412 0-.693.208-.847.625a1.125 1.125 0 00-.042.32v2.41h-.887V5.572h.887v2.415h.017c.28-.44.68-.659 1.2-.659.367 0 .671.121.913.363.3.302.452.75.452 1.344v2.383zm4.847-2.193c0 .16-.012.294-.033.404h-2.662c.012.396.139.697.385.907.225.187.516.28.872.28.394 0 .753-.063 1.077-.19l.138.62c-.378.164-.824.247-1.34.247-.618 0-1.105-.183-1.458-.549-.354-.365-.53-.856-.53-1.47 0-.605.164-1.108.494-1.51.344-.428.809-.642 1.396-.642.574 0 1.011.214 1.305.642.239.34.356.761.356 1.26zm-.847-.23a1.203 1.203 0 00-.172-.685c-.154-.247-.389-.371-.706-.371-.29 0-.526.12-.707.363a1.35 1.35 0 00-.263.693h1.848z" fill="#fff"/></g><defs><clipPath id="clip0_541_40432"><path fill="#fff" d="M0 0h114.364v34H0z"/></clipPath><filter id="filter0_i_541_40432" x="0" y="0" width="114.363" height="34" filterUnits="userSpaceOnUse" color-interpolation-filters="sRGB"><feFlood flood-opacity="0" result="BackgroundImageFix"/><feBlend in="SourceGraphic" in2="BackgroundImageFix" result="shape"/><feColorMatrix in="SourceAlpha" values="0 0 0 0 0 0 0 0 0 0 0 0 0 0 0 0 0 0 127 0" result="hardAlpha"/><feOffset/><feGaussianBlur stdDeviation="20"/><feComposite in2="hardAlpha" operator="arithmetic" k2="-1" k3="1"/><feColorMatrix values="0 0 0 0 0.791667 0 0 0 0 0.791667 0 0 0 0 0.791667 0 0 0 0.1 0"/><feBlend in2="shape" result="effect1_innerShadow_541_40432"/></filter></defs></svg>