<svg width="146" height="43" fill="none" xmlns="http://www.w3.org/2000/svg"><path d="M140.806 42H5.114C2.843 42 1 40.156 1 37.912V5.08C1 2.838 2.84 1 5.114 1h135.692C143.099 1 145 2.858 145 5.08v32.832c0 2.224-1.904 4.088-4.194 4.088z" stroke="#fff" stroke-width="2"/><path d="M32.583 21.268c-.032-3.465 2.854-5.15 2.986-5.229-1.635-2.368-4.167-2.692-5.057-2.718-2.128-.222-4.191 1.266-5.275 1.266-1.105 0-2.774-1.244-4.572-1.207-2.315.035-4.48 1.367-5.667 3.435-2.45 4.217-.623 10.415 1.725 13.824 1.174 1.67 2.547 3.533 4.343 3.468 1.757-.072 2.414-1.114 4.535-1.114 2.1 0 2.717 1.114 4.55 1.072 1.885-.03 3.073-1.677 4.206-3.362 1.358-1.913 1.903-3.798 1.924-3.895-.044-.015-3.663-1.387-3.698-5.54zm-3.46-10.189c.945-1.175 1.592-2.773 1.412-4.396-1.368.06-3.08.941-4.064 2.09-.872 1.013-1.65 2.673-1.45 4.234 1.537.114 3.115-.771 4.102-1.928zm28.893 22.788H55.56l-1.346-4.202h-4.676l-1.282 4.202h-2.39l4.632-14.306h2.862l4.656 14.306zm-4.207-5.965l-1.217-3.735c-.129-.382-.37-1.28-.726-2.695h-.043c-.142.608-.37 1.507-.683 2.695l-1.195 3.735h3.864zm16.121.68c0 1.755-.476 3.142-1.43 4.16-.855.906-1.916 1.358-3.182 1.358-1.367 0-2.349-.488-2.947-1.464h-.043v5.434h-2.306V26.947c0-1.103-.03-2.235-.085-3.396h2.027l.129 1.636h.043c.77-1.233 1.936-1.847 3.502-1.847 1.224 0 2.246.48 3.064 1.442.82.963 1.228 2.23 1.228 3.8zm-2.349.084c0-1.004-.227-1.832-.683-2.483-.498-.68-1.168-1.02-2.007-1.02-.57 0-1.086.19-1.548.563a2.606 2.606 0 00-.907 1.476 2.982 2.982 0 00-.107.699v1.72c0 .75.231 1.383.694 1.9.463.517 1.064.776 1.804.776.868 0 1.544-.334 2.028-.998.484-.665.727-1.543.727-2.633zm14.286-.084c0 1.755-.477 3.142-1.432 4.16-.853.906-1.914 1.358-3.18 1.358-1.368 0-2.35-.488-2.947-1.464h-.043v5.434H71.96V26.947c0-1.103-.03-2.235-.086-3.396h2.028l.129 1.636h.043c.768-1.233 1.934-1.847 3.502-1.847 1.223 0 2.245.48 3.065 1.442.816.963 1.226 2.23 1.226 3.8zm-2.35.084c0-1.004-.227-1.832-.684-2.483-.498-.68-1.165-1.02-2.006-1.02-.57 0-1.086.19-1.549.563a2.604 2.604 0 00-.906 1.476 3.06 3.06 0 00-.107.699v1.72c0 .75.232 1.383.692 1.9.463.516 1.065.776 1.806.776.869 0 1.545-.334 2.028-.998.485-.665.727-1.543.727-2.633zm15.695 1.189c0 1.217-.425 2.207-1.278 2.971-.938.836-2.243 1.253-3.92 1.253-1.55 0-2.791-.297-3.73-.891l.533-1.91a6.35 6.35 0 003.334.913c.868 0 1.544-.196 2.03-.585.483-.389.724-.911.724-1.563 0-.58-.199-1.07-.598-1.466-.397-.397-1.06-.765-1.986-1.106-2.52-.934-3.778-2.303-3.778-4.102 0-1.177.441-2.14 1.325-2.891.88-.752 2.054-1.127 3.523-1.127 1.31 0 2.398.227 3.266.68l-.576 1.868c-.812-.439-1.728-.658-2.755-.658-.811 0-1.445.199-1.899.595a1.694 1.694 0 00-.576 1.295c0 .566.22 1.033.66 1.4.384.34 1.082.708 2.094 1.105 1.238.495 2.148 1.075 2.733 1.74.583.661.874 1.49.874 2.48zm7.624-4.584h-2.541v5.009c0 1.274.447 1.91 1.345 1.91.412 0 .754-.035 1.024-.106l.064 1.74c-.454.169-1.052.254-1.793.254-.911 0-1.622-.277-2.136-.828-.512-.553-.77-1.48-.77-2.781v-5.2h-1.513v-1.72h1.514V21.66l2.265-.679v2.568h2.541v1.722zm11.466 3.353c0 1.586-.456 2.888-1.367 3.906-.954 1.048-2.222 1.57-3.802 1.57-1.523 0-2.735-.502-3.639-1.506-.904-1.004-1.356-2.271-1.356-3.799 0-1.598.465-2.908 1.398-3.926.931-1.019 2.188-1.528 3.768-1.528 1.523 0 2.748.502 3.673 1.507.884.975 1.325 2.234 1.325 3.776zm-2.392.074c0-.951-.204-1.767-.618-2.447-.484-.824-1.175-1.235-2.07-1.235-.927 0-1.631.412-2.115 1.235-.414.681-.618 1.51-.618 2.49 0 .952.204 1.768.618 2.447.499.823 1.195 1.234 2.094 1.234.88 0 1.572-.42 2.07-1.255.425-.694.639-1.518.639-2.469zm9.888-3.131a4.032 4.032 0 00-.727-.063c-.811 0-1.438.304-1.88.913-.384.538-.576 1.217-.576 2.037v5.413h-2.305l.022-7.067c0-1.189-.03-2.271-.087-3.248h2.009l.084 1.974h.064c.243-.678.627-1.224 1.153-1.634a2.798 2.798 0 011.667-.552c.213 0 .405.015.576.041v2.186zm10.311 2.654c0 .41-.027.757-.085 1.04h-6.917c.027 1.019.361 1.798 1.004 2.336.583.48 1.336.721 2.262.721 1.024 0 1.959-.162 2.799-.488l.361 1.591c-.982.426-2.141.638-3.479.638-1.609 0-2.872-.471-3.792-1.412-.917-.94-1.376-2.204-1.376-3.788 0-1.556.427-2.851 1.282-3.884.896-1.103 2.106-1.655 3.629-1.655 1.495 0 2.628.552 3.397 1.655.609.876.915 1.96.915 3.246zm-2.199-.594c.015-.68-.135-1.267-.448-1.762-.399-.638-1.012-.956-1.837-.956-.754 0-1.367.31-1.835.934-.384.496-.613 1.09-.683 1.783h4.803zM53.047 10.76c0 1.265-.382 2.218-1.144 2.857-.707.59-1.71.886-3.01.886a14.03 14.03 0 01-1.659-.084V7.506a12.308 12.308 0 011.953-.146c1.238 0 2.172.267 2.8.803.706.605 1.06 1.47 1.06 2.597zm-1.195.031c0-.82-.219-1.45-.656-1.888-.437-.437-1.075-.657-1.915-.657-.357 0-.661.024-.913.074v5.255c.14.022.395.031.766.031.867 0 1.537-.24 2.008-.719.472-.48.71-1.178.71-2.096zm7.531 1.074c0 .78-.224 1.418-.671 1.919-.47.515-1.092.772-1.868.772-.749 0-1.345-.247-1.79-.741-.443-.493-.664-1.116-.664-1.866 0-.785.228-1.429.687-1.929.458-.5 1.075-.75 1.851-.75.749 0 1.35.246 1.805.74.433.479.65 1.098.65 1.855zm-1.175.036c0-.467-.102-.868-.304-1.203-.238-.404-.577-.606-1.017-.606-.455 0-.801.202-1.04.606-.203.335-.303.742-.303 1.224 0 .467.101.868.304 1.203.245.404.587.606 1.028.606.433 0 .773-.205 1.017-.617.21-.34.315-.745.315-1.213zm9.672-2.528l-1.596 5.068h-1.038l-.661-2.2a16.38 16.38 0 01-.41-1.638h-.02a11.926 11.926 0 01-.41 1.637l-.702 2.2h-1.05l-1.5-5.067h1.164l.577 2.41c.14.569.254 1.112.346 1.626h.02c.085-.424.224-.964.42-1.616l.724-2.419h.924l.694 2.367c.167.578.303 1.133.408 1.669h.032a15.85 15.85 0 01.346-1.669l.618-2.367h1.113v-.001zm5.875 5.067h-1.133v-2.902c0-.894-.342-1.341-1.028-1.341-.336 0-.608.122-.819.368a1.303 1.303 0 00-.314.869v3.006h-1.134v-3.62c0-.445-.014-.928-.04-1.45h.995l.053.792h.032c.132-.246.328-.45.587-.612a1.924 1.924 0 011.027-.284c.476 0 .872.152 1.187.459.391.375.587.935.587 1.679v3.036zm3.125 0h-1.132V7.047h1.132v7.393zm6.673-2.575c0 .78-.224 1.418-.671 1.919-.47.515-1.093.772-1.868.772-.75 0-1.346-.247-1.79-.741-.443-.493-.664-1.116-.664-1.866 0-.785.228-1.429.686-1.929.459-.5 1.075-.75 1.85-.75.75 0 1.35.246 1.807.74.433.479.65 1.098.65 1.855zm-1.177.036c0-.467-.101-.868-.303-1.203-.237-.404-.577-.606-1.016-.606-.457 0-.803.202-1.04.606-.203.335-.303.742-.303 1.224 0 .467.101.868.303 1.203.246.404.588.606 1.03.606.432 0 .77-.205 1.015-.617.21-.34.314-.745.314-1.213zm6.662 2.539h-1.017l-.085-.583h-.031c-.349.465-.845.699-1.49.699-.48 0-.87-.154-1.163-.46a1.435 1.435 0 01-.4-1.031c0-.62.26-1.092.782-1.418.522-.327 1.255-.487 2.2-.48v-.094c0-.668-.353-1.001-1.06-1.001-.502 0-.946.126-1.329.375l-.23-.74c.474-.291 1.059-.437 1.749-.437 1.332 0 2 .699 2 2.096v1.866c0 .507.026.91.074 1.209zm-1.176-1.74v-.781c-1.25-.022-1.876.319-1.876 1.02 0 .265.071.463.217.595a.796.796 0 00.554.198c.249 0 .481-.078.694-.234a.96.96 0 00.41-.798zm7.616 1.74h-1.005l-.053-.814h-.032c-.321.62-.868.929-1.637.929-.615 0-1.126-.24-1.532-.72-.405-.479-.608-1.101-.608-1.866 0-.82.22-1.484.661-1.992.427-.473.95-.71 1.574-.71.684 0 1.164.23 1.436.689h.022v-2.91h1.134v6.028c0 .494.013.949.04 1.366zm-1.174-2.137v-.845a1.282 1.282 0 00-.441-1.037 1.118 1.118 0 00-.759-.277c-.422 0-.754.167-.997.5-.241.335-.363.762-.363 1.283 0 .501.115.908.348 1.22.246.334.576.5.99.5.373 0 .67-.138.896-.417a1.38 1.38 0 00.326-.928zm10.868-.438c0 .78-.224 1.418-.671 1.919-.47.515-1.091.772-1.868.772-.748 0-1.344-.247-1.789-.741-.444-.493-.665-1.116-.665-1.866 0-.785.228-1.429.687-1.929.458-.5 1.075-.75 1.852-.75.748 0 1.35.246 1.804.74.433.479.65 1.098.65 1.855zm-1.174.036c0-.467-.102-.868-.304-1.203-.239-.404-.577-.606-1.018-.606-.454 0-.8.202-1.039.606-.204.335-.304.742-.304 1.224 0 .467.101.868.304 1.203.245.404.587.606 1.028.606.433 0 .774-.205 1.018-.617.209-.34.315-.745.315-1.213zm7.268 2.539h-1.133v-2.902c0-.894-.341-1.341-1.028-1.341-.337 0-.608.122-.818.368-.21.246-.315.537-.315.869v3.006h-1.134v-3.62c0-.445-.013-.928-.04-1.45h.995l.053.792h.031c.133-.246.33-.45.588-.612a1.928 1.928 0 011.028-.284c.475 0 .871.152 1.186.459.392.375.587.935.587 1.679v3.036zm7.627-4.223h-1.248v2.461c0 .626.222.939.661.939.203 0 .372-.017.505-.053l.029.855c-.224.084-.518.126-.88.126-.448 0-.796-.136-1.048-.407-.253-.27-.379-.726-.379-1.366v-2.555h-.745v-.844h.745v-.929l1.111-.333v1.26h1.248v.846h.001zm6.001 4.223h-1.135v-2.881c0-.909-.342-1.364-1.026-1.364-.526 0-.885.264-1.082.79a1.434 1.434 0 00-.053.406v3.048h-1.132V7.047h1.132V10.1h.022c.357-.556.868-.833 1.531-.833.47 0 .858.152 1.166.459.384.381.577.95.577 1.7v3.013zm6.189-2.773c0 .202-.015.372-.042.51h-3.4c.015.502.178.883.492 1.148.288.236.659.355 1.113.355.503 0 .962-.08 1.375-.24l.177.783c-.483.208-1.052.312-1.711.312-.789 0-1.411-.23-1.861-.693-.452-.462-.676-1.083-.676-1.86 0-.765.209-1.402.629-1.909.439-.542 1.033-.813 1.783-.813.733 0 1.29.271 1.666.813.304.43.455.962.455 1.594zm-1.082-.291a1.511 1.511 0 00-.219-.865c-.197-.313-.497-.47-.902-.47-.37 0-.672.152-.903.459a1.703 1.703 0 00-.336.876h2.36z" fill="#fff"/></svg>