<svg width="76" height="57" fill="none" xmlns="http://www.w3.org/2000/svg"><path d="M62.2 35.669V7.894c0-3.82-3.105-6.944-6.9-6.944H7C3.205.95.1 4.075.1 7.894v27.775c0 3.819 3.105 6.944 6.9 6.944h48.3c3.795 0 6.9-3.125 6.9-6.944zm-6.9 0H7V7.894h48.3v27.775zM31.15 11.366c-5.727 0-10.35 4.652-10.35 10.415 0 5.764 4.623 10.416 10.35 10.416 5.727 0 10.35-4.653 10.35-10.416 0-5.763-4.623-10.415-10.35-10.415zm44.85 0v38.19c0 3.82-3.105 6.944-6.9 6.944H10.45v-6.944H69.1v-38.19H76z" fill="#657FFF"/></svg>