<svg width="51" height="67" fill="none" xmlns="http://www.w3.org/2000/svg"><path d="M44.675 22.9h-3.162v-6.286C41.513 7.94 34.429.9 25.7.9 16.972.9 9.888 7.94 9.888 16.614V22.9H6.725C3.247 22.9.4 25.729.4 29.186v31.428c0 3.458 2.847 6.286 6.325 6.286h37.95c3.48 0 6.325-2.829 6.325-6.286V29.186c0-3.457-2.846-6.286-6.325-6.286zm-28.462-6.286c0-5.217 4.238-9.428 9.487-9.428 5.25 0 9.488 4.211 9.488 9.428V22.9H16.213v-6.286zm28.462 44H6.725V29.186h37.95v31.428zM25.7 51.186c3.48 0 6.325-2.829 6.325-6.286 0-3.457-2.846-6.286-6.325-6.286-3.478 0-6.325 2.829-6.325 6.286 0 3.457 2.847 6.286 6.325 6.286z" fill="#657FFF"/></svg>