<svg width="150" height="30" fill="none" xmlns="http://www.w3.org/2000/svg"><path d="M9.175 12.606L15 6.78l5.83 5.83 3.388-3.391L15 0 5.784 9.217l3.39 3.389zM-.001 15l3.39-3.389 3.389 3.39-3.39 3.389L0 15zm9.176 2.395L15 23.22l5.83-5.829 3.39 3.386-.002.002L15 30l-9.217-9.215-.005-.005 3.396-3.386zm14.044-2.393l3.39-3.39 3.389 3.39-3.39 3.389-3.39-3.39z" fill="#fff"/><path d="M18.44 14.999L15 11.559 12.46 14.1l-.294.291-.602.602-.004.005.004.007 3.438 3.436L18.44 15l.002-.002h-.002zM35.287 7.27h7.374c1.83 0 3.213.473 4.151 1.421a3.672 3.672 0 011.088 2.682v.046a3.95 3.95 0 01-.168 1.203 3.697 3.697 0 01-1.107 1.687 4.249 4.249 0 01-.803.545 5.37 5.37 0 012.173 1.422c.527.6.791 1.43.791 2.488v.045a4.132 4.132 0 01-.42 1.91 3.723 3.723 0 01-1.2 1.364 5.7 5.7 0 01-1.884.818c-.8.19-1.618.28-2.439.273h-7.556V7.27zm6.635 6.43a3.646 3.646 0 001.84-.398 1.373 1.373 0 00.678-1.284v-.045a1.406 1.406 0 00-.59-1.216c-.393-.28-.96-.419-1.703-.419h-3.45V13.7h3.225zm.93 6.41a3.366 3.366 0 001.825-.42 1.44 1.44 0 00.66-1.308v-.045a1.496 1.496 0 00-.615-1.26c-.407-.316-1.066-.474-1.976-.474h-4.05v3.507h4.157zM53.179 7.27h3.5v15.908h-3.5V7.27zm8.796 0h3.227l7.459 9.79V7.27h3.455v15.908h-2.979l-7.703-10.113v10.113h-3.46V7.27zm24.738-.114h3.222l6.817 16.022H93.1l-1.455-3.568h-6.727l-1.455 3.568h-3.568l6.819-16.022zm3.682 9.364l-2.118-5.16-2.11 5.16h4.228zm10.141-9.25h3.227l7.455 9.79V7.27h3.454v15.908h-2.978l-7.703-10.113v10.113h-3.455V7.27zm26.733 16.188a8.28 8.28 0 01-3.251-.635 7.868 7.868 0 01-4.296-4.341 8.424 8.424 0 01-.613-3.206v-.045a8.251 8.251 0 012.319-5.808 7.875 7.875 0 012.607-1.772 8.504 8.504 0 013.362-.647 10.54 10.54 0 012.033.183 8.442 8.442 0 011.673.5 7.15 7.15 0 011.386.772c.422.3.818.634 1.185 1l-2.225 2.568a8.456 8.456 0 00-1.896-1.32 4.849 4.849 0 00-2.17-.473 4.4 4.4 0 00-3.317 1.455 4.99 4.99 0 00-.958 1.58 5.408 5.408 0 00-.338 1.922v.045a5.488 5.488 0 00.338 1.919c.216.584.537 1.123.948 1.59a4.38 4.38 0 003.317 1.478 4.863 4.863 0 002.306-.5 8.908 8.908 0 001.874-1.364l2.228 2.25c-.394.427-.819.824-1.273 1.185a7.59 7.59 0 01-1.443.898 7.484 7.484 0 01-1.715.567c-.685.137-1.382.204-2.081.199zM137.911 7.27h11.973v3.113h-8.53v3.227h7.511v3.114h-7.499v3.34h8.637v3.114h-12.085l-.007-15.908z" fill="#fff"/></svg>