<svg width="138" height="30" fill="none" xmlns="http://www.w3.org/2000/svg"><path d="M9.014 29.976C4.51 29.976.1 26.738.1 19.43c0-7.335 4.41-10.525 8.914-10.525 2.216 0 3.956.571 5.195 1.38l-1.358 2.977c-.834-.595-2.074-.976-3.313-.976-2.717 0-5.195 2.143-5.195 7.095s2.55 7.143 5.195 7.143c1.24 0 2.479-.381 3.313-.976l1.358 3.047c-1.287.857-2.979 1.381-5.195 1.381zm15.515 0c-5.744 0-8.914-4.547-8.914-10.547 0-6 3.146-10.524 8.914-10.524 5.743 0 8.913 4.5 8.913 10.524 0 6-3.17 10.547-8.913 10.547zm0-17.81c-3.194 0-4.767 2.858-4.767 7.215 0 4.357 1.573 7.238 4.767 7.238 3.193 0 4.766-2.88 4.766-7.238 0-4.357-1.573-7.214-4.767-7.214zm14.442-6.523c-1.358 0-2.454-1.048-2.454-2.334 0-1.285 1.096-2.333 2.454-2.333 1.359 0 2.455 1.048 2.455 2.333 0 1.286-1.12 2.334-2.455 2.334zm-2.073 3.666h4.147v20.239h-4.147V9.308zm20.4 20.239v-13.5c0-2.357-1.43-3.834-4.242-3.834-1.501 0-2.883.262-3.718.595v16.763H45.24v-19.24c2.026-.833 4.624-1.428 7.794-1.428 5.672 0 8.412 2.476 8.412 6.762v13.905h-4.147m15.038.405c-2.622 0-5.22-.643-6.817-1.428V.07h4.1v9.762C70.597 9.381 72.17 9 73.576 9c5.22 0 8.77 3.762 8.77 9.952 0 7.643-3.956 11.024-10.01 11.024zm.524-17.762c-1.12 0-2.455.262-3.241.667v13.285c.596.262 1.763.524 2.931.524 3.265 0 5.672-2.262 5.672-7.428.024-4.429-2.073-7.048-5.362-7.048zM93.5 29.976c-5.815 0-8.77-2.357-8.77-6.357 0-5.643 6.005-6.643 12.13-6.976v-1.286c0-2.547-1.692-3.452-4.29-3.452-1.906 0-4.242.595-5.6 1.238l-1.049-2.81c1.62-.714 4.361-1.428 7.078-1.428 4.838 0 7.794 1.88 7.794 6.88v12.763c-1.454.785-4.433 1.428-7.293 1.428zm3.384-10.595c-4.147.214-8.27.571-8.27 4.167 0 2.143 1.645 3.452 4.767 3.452 1.31 0 2.86-.214 3.503-.524v-7.095zm13.155 10.595c-2.359 0-4.838-.643-6.315-1.428l1.382-3.143c1.049.643 3.265 1.31 4.814 1.31 2.216 0 3.694-1.096 3.694-2.786 0-1.834-1.549-2.548-3.599-3.31-2.717-1.024-5.743-2.262-5.743-6.048 0-3.333 2.597-5.666 7.102-5.666 2.455 0 4.48.595 5.91 1.428l-1.287 2.857c-.905-.57-2.717-1.19-4.17-1.19-2.145 0-3.337 1.12-3.337 2.595 0 1.834 1.502 2.476 3.503 3.238 2.813 1.048 5.935 2.215 5.935 6.167-.024 3.595-2.813 5.976-7.889 5.976zM137.9 19.333l-13.466 1.881c.405 3.643 2.789 5.476 6.197 5.476 2.025 0 4.218-.5 5.6-1.238l1.192 3.072c-1.573.833-4.29 1.428-7.078 1.428-6.387 0-9.962-4.095-9.962-10.547 0-6.19 3.456-10.524 9.128-10.524 5.267 0 8.389 3.452 8.389 8.905a8.51 8.51 0 010 1.547zm-8.413-7.428c-3.146 0-5.22 2.404-5.291 6.619l9.819-1.357c-.048-3.524-1.835-5.262-4.528-5.262z" fill="#fff"/></svg>