<svg width="34" height="34" fill="none" xmlns="http://www.w3.org/2000/svg"><path fill-rule="evenodd" clip-rule="evenodd" d="M17.217 23.573l4.026-4.066a1.063 1.063 0 00-.014-1.501 1.034 1.034 0 00-1.473 0l-2.23 2.267v-6.829c0-.595-.463-1.062-1.038-1.062s-1.052.467-1.052 1.062v6.829l-2.23-2.267a1.034 1.034 0 00-1.473 0 1.076 1.076 0 000 1.502l4.011 4.065c.098.1.21.17.337.227a.997.997 0 00.8 0c.126-.057.238-.128.336-.227zm10.164-10.787c.33-.003.689-.008 1.015-.008.365 0 .645.284.645.638v11.39c0 3.513-2.833 6.36-6.311 6.36H11.578c-3.66 0-6.62-2.989-6.62-6.672V9.223c0-3.514 2.82-6.39 6.326-6.39h7.49c.35 0 .645.298.645.652v4.562c0 2.592 2.104 4.717 4.685 4.731.593 0 1.123.005 1.586.009a68.742 68.742 0 001.69 0zm.392-2.067c-1.152.004-2.511 0-3.489-.01-1.551 0-2.829-1.29-2.829-2.858V4.117c0-.61.734-.914 1.152-.473l4.132 4.339 1.516 1.592c.41.43.11 1.142-.482 1.144z" fill="#fff"/></svg>