<svg width="96" height="30" fill="none" xmlns="http://www.w3.org/2000/svg"><path d="M17.654 22.008H9.735v7.985h7.92v-7.985zm7.011-10.99H9.735v7.956h17.626v-7.956h-2.697zM34.23 0H9.735v7.985H34.23V0zM7.919 11.018H0V19h7.919v-7.983zm41.382-.171v4.007h8.005v4.006H49.3v6.268h-5.138V6.84h14.22v3.977H49.3v.03zm16.49.086H60.23V6.841h16.234v4.092H70.93V25.1h-5.137V10.933zM90.09 25.1l-3.748-5.667-3.689 5.667h-5.848l6.557-9.216-6.3-9.014h5.76l3.634 5.265 3.576-5.265h5.535l-6.302 8.813 6.727 9.444H90.09V25.1z" fill="#fff"/></svg>