<svg width="115" height="34" fill="none" xmlns="http://www.w3.org/2000/svg"><g filter="url(#filter0_i_541_40419)"><path d="M110.658 34H4.369C2.161 34 .363 32.191.363 29.977V4.017A4.016 4.016 0 014.37 0h106.289c2.208 0 4.069 1.802 4.069 4.017v25.96c0 2.214-1.861 4.023-4.069 4.023z" fill="#2F4DE2"/></g><path d="M42.104 9.79a2.05 2.05 0 01-.57 1.518 2.212 2.212 0 01-1.676.67 2.291 2.291 0 01-1.702-.671 2.264 2.264 0 01-.657-1.699 2.254 2.254 0 01.657-1.698 2.28 2.28 0 011.702-.67c.322 0 .64.066.935.192.279.108.526.283.718.51l-.399.397a1.538 1.538 0 00-1.254-.544 1.73 1.73 0 00-1.242.51 1.744 1.744 0 00-.525 1.303 1.736 1.736 0 00.525 1.304 1.807 1.807 0 002.52 0c.235-.25.372-.576.387-.918h-1.665V9.45h2.212c.022.112.033.226.034.34zm3.499-1.893H43.53v1.44h1.87v.543h-1.87v1.44h2.074v.555h-2.656V7.342h2.656v.555zm2.475 3.978h-.593V7.897H46.22v-.555h3.135v.555h-1.277v3.978zm3.557 0V7.342h.593v4.533h-.593zm3.158 0h-.582V7.897h-1.276v-.555h3.135v.555h-1.277v3.978zm7.204-.589a2.35 2.35 0 01-1.67.693 2.36 2.36 0 01-1.67-.693 2.429 2.429 0 010-3.4 2.349 2.349 0 011.67-.694 2.36 2.36 0 011.67.694 2.43 2.43 0 010 3.4zm-2.907-.374a1.687 1.687 0 001.243.51 1.672 1.672 0 001.231-.51 1.755 1.755 0 00.513-1.304 1.746 1.746 0 00-.513-1.303 1.665 1.665 0 00-1.231-.51 1.696 1.696 0 00-1.243.51 1.744 1.744 0 00-.501 1.303 1.736 1.736 0 00.501 1.304zm4.4.963V7.342h.684l2.28 3.525V7.341h.582v4.533h-.582l-2.28-3.695v3.695h-.684zm-5.653 6.608a3.252 3.252 0 00-1.794.547 3.202 3.202 0 00-.483 4.947 3.256 3.256 0 003.523.7 3.234 3.234 0 001.453-1.18 3.206 3.206 0 00.55-1.784 3.146 3.146 0 00-.93-2.305 3.182 3.182 0 00-2.319-.925zm0 5.156a1.97 1.97 0 01-1.137-.238 1.94 1.94 0 01-.49-3.02 1.963 1.963 0 012.163-.497c.369.145.685.397.907.723.222.326.339.712.336 1.106.019.489-.158.966-.49 1.326a1.876 1.876 0 01-1.288.6zm-7.068-5.156a3.25 3.25 0 00-1.797.541 3.223 3.223 0 00-1.193 1.443 3.2 3.2 0 00.697 3.506 3.255 3.255 0 003.524.705 3.234 3.234 0 001.456-1.18 3.206 3.206 0 00.551-1.785 3.147 3.147 0 00-.927-2.3 3.181 3.181 0 00-2.31-.93zm0 5.156a1.97 1.97 0 01-1.126-.261 1.954 1.954 0 01-.782-.848 1.938 1.938 0 01.344-2.171 1.963 1.963 0 012.159-.473 1.954 1.954 0 011.229 1.827 1.846 1.846 0 01-.506 1.342 1.868 1.868 0 01-1.318.584zm-8.413-4.193v1.36h3.272a2.847 2.847 0 01-.741 1.723 3.42 3.42 0 01-2.53.997 3.659 3.659 0 01-2.58-1.062 3.616 3.616 0 010-5.13 3.659 3.659 0 012.58-1.061 3.437 3.437 0 012.462.974l.969-.963a4.756 4.756 0 00-3.42-1.371c-1.33 0-2.607.525-3.547 1.46a4.972 4.972 0 00-1.47 3.526 4.97 4.97 0 001.47 3.526 5.031 5.031 0 003.547 1.461 4.47 4.47 0 003.37-1.249 4.418 4.418 0 001.338-3.318 3.783 3.783 0 00-.114-.873h-4.606zm34.417 1.133a3.004 3.004 0 00-1.064-1.451 3.033 3.033 0 00-1.706-.589 3.083 3.083 0 00-2.162.965 3.047 3.047 0 00-.825 2.209 3.134 3.134 0 00.916 2.284 3.17 3.17 0 002.287.934 3.23 3.23 0 002.69-1.428l-1.14-.725a1.866 1.866 0 01-1.595.884 1.649 1.649 0 01-1.562-.975l4.32-1.768-.159-.34zm-4.412 1.077a1.747 1.747 0 01.448-1.288 1.766 1.766 0 011.24-.582 1.249 1.249 0 011.208.68l-2.896 1.19zm-3.511 3.06h1.425v-9.44H68.85v9.44zm-2.28-5.52a2.28 2.28 0 00-1.699-.713 3.246 3.246 0 00-2.164 1.005 3.208 3.208 0 000 4.415c.566.597 1.34.957 2.164 1.006a2.198 2.198 0 001.585-.737v.465c0 1.235-.661 1.892-1.722 1.892a1.797 1.797 0 01-1.63-1.133l-1.208.499a3.052 3.052 0 001.139 1.382 3.08 3.08 0 001.722.51c1.665 0 3.067-.974 3.067-3.343v-5.769h-1.3l.046.522zm-1.676 4.443a1.965 1.965 0 01-1.289-.619 1.943 1.943 0 010-2.65c.336-.36.796-.58 1.29-.618a1.83 1.83 0 011.284.614 1.811 1.811 0 01.448 1.347 1.792 1.792 0 01-.457 1.327 1.811 1.811 0 01-1.276.6zm18.525-8.364H80v9.441h1.414v-3.581h1.983a2.97 2.97 0 002.206-.791 2.935 2.935 0 00.93-2.139 2.921 2.921 0 00-.93-2.14 2.955 2.955 0 00-2.206-.79h.023zm0 4.534h-1.983V16.59h2.017a1.639 1.639 0 011.24.422 1.62 1.62 0 01.39 1.844 1.619 1.619 0 01-.965.882c-.214.073-.44.1-.665.082l-.034-.011zm8.767-1.349a2.657 2.657 0 00-1.483.342c-.45.256-.814.637-1.048 1.097l1.254.522a1.353 1.353 0 011.3-.692c.36-.034.718.073.998.3.28.228.458.556.495.913v.102a3.172 3.172 0 00-1.482-.363c-1.357 0-2.736.737-2.736 2.12a2.166 2.166 0 00.745 1.555 2.19 2.19 0 001.65.53 2.004 2.004 0 001.8-.907h.057v.726h1.368v-3.627a2.572 2.572 0 00-.85-1.95 2.602 2.602 0 00-2.034-.657l-.034-.011zm-.171 5.168c-.468 0-1.14-.227-1.14-.805 0-.578.81-1.008 1.505-1.008.454-.01.902.099 1.3.317a1.708 1.708 0 01-.538 1.05 1.727 1.727 0 01-1.093.457l-.034-.011zm7.98-4.964l-1.63 4.091-1.688-4.091h-1.482l2.531 5.723-1.436 3.174h1.47l3.899-8.897h-1.664zm-12.677 6.052h1.414v-9.44h-1.414v9.44zm-57.16-8.942L15.839 7.637a1.57 1.57 0 00-.798-.216h-.296c-.18.036-.354.1-.513.193a1.592 1.592 0 00-.798 1.383v16.308a1.56 1.56 0 00.364 1.023c.24.287.576.48.947.541h.296c.28.001.556-.073.798-.215l14.319-8.137a1.603 1.603 0 00.809-1.338 1.591 1.591 0 00-.81-1.382v-.023zm-5.7-1.62l-1.391 1.892-3.58-4.76 4.97 2.867zm4.97 3.184l-10.01 5.667 6.305-8.092 3.74 2.13a.204.204 0 01.113.17.202.202 0 01-.114.182l-.034-.057z" fill="#fff"/><defs><filter id="filter0_i_541_40419" x=".363" y="0" width="114.363" height="34" filterUnits="userSpaceOnUse" color-interpolation-filters="sRGB"><feFlood flood-opacity="0" result="BackgroundImageFix"/><feBlend in="SourceGraphic" in2="BackgroundImageFix" result="shape"/><feColorMatrix in="SourceAlpha" values="0 0 0 0 0 0 0 0 0 0 0 0 0 0 0 0 0 0 127 0" result="hardAlpha"/><feOffset/><feGaussianBlur stdDeviation="20"/><feComposite in2="hardAlpha" operator="arithmetic" k2="-1" k3="1"/><feColorMatrix values="0 0 0 0 0.791667 0 0 0 0 0.791667 0 0 0 0 0.791667 0 0 0 0.1 0"/><feBlend in2="shape" result="effect1_innerShadow_541_40419"/></filter></defs></svg>