<svg width="146" height="43" fill="none" xmlns="http://www.w3.org/2000/svg"><path d="M140.806 42H5.114C2.843 42 1 40.156 1 37.912V5.08C1 2.838 2.84 1 5.114 1h135.692C143.099 1 145 2.858 145 5.08v32.832c0 2.224-1.904 4.088-4.194 4.088z" fill="#2F4DE2" stroke="#fff" stroke-width="2"/><path d="M53.288 12.381a2.573 2.573 0 01-.728 1.92c-.276.282-.61.503-.978.649a2.863 2.863 0 01-1.162.198 2.953 2.953 0 01-1.177-.2 2.917 2.917 0 01-.996-.648 2.863 2.863 0 01-.648-.988 2.829 2.829 0 01-.192-1.16 2.829 2.829 0 01.84-2.148c.283-.282.622-.502.996-.648a2.952 2.952 0 011.177-.2c.41 0 .817.084 1.194.244.355.136.67.358.917.645l-.51.502a1.99 1.99 0 00-1.601-.688 2.227 2.227 0 00-1.586.645 2.203 2.203 0 00-.67 1.648 2.205 2.205 0 00.67 1.648c.43.414 1.007.646 1.608.646.601 0 1.179-.232 1.608-.646.301-.316.477-.728.495-1.16H50.42v-.689h2.824c.028.142.043.286.044.43zm4.468-2.394h-2.65v1.82h2.388v.689h-2.387v1.82h2.649v.702h-3.392V9.285h3.392v.702zm3.157 5.031h-.756v-5.03H58.54v-.703h4.003v.702h-1.63v5.031zm4.541 0V9.285h.757v5.733h-.757zm4.032 0h-.743v-5.03h-1.63v-.703h4.003v.702h-1.63v5.031zm9.197-.745a3 3 0 01-.977.649 3.039 3.039 0 01-3.287-.649 3.058 3.058 0 01-.888-2.15c0-.803.319-1.574.888-2.15a3 3 0 01.977-.649 3.039 3.039 0 013.287.65c.57.575.888 1.346.888 2.15 0 .802-.319 1.574-.888 2.15zm-3.711-.473a2.157 2.157 0 001.586.645 2.155 2.155 0 001.572-.645 2.218 2.218 0 00.655-1.648 2.19 2.19 0 00-.655-1.649 2.128 2.128 0 00-1.572-.645 2.183 2.183 0 00-2.081 1.404 2.18 2.18 0 00-.146.89 2.178 2.178 0 00.64 1.648zm5.618 1.218V9.285h.873l2.911 4.458V9.285h.742v5.733h-.742l-2.91-4.672v4.672h-.874zm-7.216 8.357a4.18 4.18 0 00-2.291.692 4.084 4.084 0 00-1.516 1.828 4.013 4.013 0 00-.232 2.348 4.05 4.05 0 001.13 2.081 4.153 4.153 0 002.113 1.113c.8.158 1.63.078 2.385-.228a4.121 4.121 0 001.856-1.493 4.02 4.02 0 00.702-2.256 3.945 3.945 0 00-.291-1.577c-.204-.5-.51-.956-.897-1.338a4.066 4.066 0 00-1.358-.883 4.115 4.115 0 00-1.601-.287zm0 6.522a2.536 2.536 0 01-1.452-.301 2.482 2.482 0 01-1.023-1.058 2.432 2.432 0 01.397-2.763 2.512 2.512 0 011.282-.735 2.54 2.54 0 011.48.108c.47.182.874.5 1.157.914.283.412.433.9.429 1.398a2.33 2.33 0 01-.627 1.678 2.403 2.403 0 01-1.643.759zm-9.024-6.522c-.816 0-1.615.238-2.294.685a4.085 4.085 0 00-1.523 1.825 4.014 4.014 0 00-.238 2.35 4.055 4.055 0 001.128 2.084 4.19 4.19 0 004.499.892 4.12 4.12 0 001.858-1.493c.456-.668.7-1.453.704-2.258a3.947 3.947 0 00-.29-1.574 3.994 3.994 0 00-.894-1.335 4.066 4.066 0 00-1.353-.885 4.115 4.115 0 00-1.597-.291zm0 6.522a2.534 2.534 0 01-1.438-.331 2.48 2.48 0 01-.998-1.072 2.432 2.432 0 01.439-2.746 2.513 2.513 0 011.284-.718 2.54 2.54 0 011.472.12c.468.185.867.504 1.147.916.28.412.428.898.423 1.394a2.317 2.317 0 01-.647 1.698 2.417 2.417 0 01-1.681.739zm-10.74-5.304v1.72h4.177a3.585 3.585 0 01-.946 2.179 4.373 4.373 0 01-1.483.961c-.556.217-1.15.32-1.748.3a4.694 4.694 0 01-3.293-1.343 4.552 4.552 0 01-1.364-3.243c0-1.217.49-2.383 1.364-3.244a4.694 4.694 0 013.293-1.343c.58-.01 1.158.093 1.698.304.54.212 1.031.528 1.445.929l1.237-1.219a6.078 6.078 0 00-2.005-1.3 6.15 6.15 0 00-2.36-.434 6.454 6.454 0 00-4.529 1.847 6.259 6.259 0 00-1.875 4.46c0 1.672.674 3.276 1.875 4.46a6.454 6.454 0 004.528 1.846c.79.047 1.58-.07 2.32-.342a5.686 5.686 0 001.982-1.237 5.586 5.586 0 001.305-1.92 5.516 5.516 0 00.404-2.277 4.747 4.747 0 00-.146-1.104h-5.88zm43.937 1.434a3.802 3.802 0 00-1.358-1.836 3.895 3.895 0 00-2.178-.744 3.957 3.957 0 00-2.76 1.22 3.808 3.808 0 00-1.053 2.793 3.932 3.932 0 00.286 1.561c.2.497.501.948.883 1.328.381.38.836.68 1.338.883a4.1 4.1 0 001.582.299c.68.002 1.35-.161 1.949-.477.6-.315 1.11-.772 1.486-1.33l-1.456-.917a2.372 2.372 0 01-.87.821 2.417 2.417 0 01-1.167.297 2.12 2.12 0 01-1.19-.314 2.073 2.073 0 01-.804-.918l5.516-2.236-.204-.43zm-5.632 1.361a2.19 2.19 0 01.572-1.629 2.284 2.284 0 011.582-.736 1.584 1.584 0 011.543.86l-3.697 1.505zm-4.483 3.87h1.82v-11.94h-1.82v11.94zm-2.91-6.98a2.913 2.913 0 00-.988-.677 2.95 2.95 0 00-1.18-.226 4.16 4.16 0 00-2.764 1.272 4.038 4.038 0 00-1.125 2.792 4.04 4.04 0 001.125 2.791 4.16 4.16 0 002.763 1.272c.384-.01.762-.098 1.11-.258.348-.16.66-.39.913-.674v.588c0 1.562-.844 2.394-2.197 2.394a2.308 2.308 0 01-1.262-.406 2.256 2.256 0 01-.82-1.028l-1.542.631a3.868 3.868 0 001.454 1.748 3.958 3.958 0 002.199.646c2.124 0 3.915-1.233 3.915-4.229V23.62h-1.66l.059.659zm-2.14 5.619a2.519 2.519 0 01-1.645-.783 2.445 2.445 0 01-.667-1.675c0-.622.238-1.22.667-1.676a2.518 2.518 0 011.645-.783 2.355 2.355 0 011.641.777 2.284 2.284 0 01.572 1.703 2.247 2.247 0 01-.584 1.679 2.343 2.343 0 01-1.629.758zm23.65-10.578h-4.366v11.94h1.805v-4.53h2.532a3.826 3.826 0 001.513-.213 3.78 3.78 0 001.302-.787 3.669 3.669 0 000-5.41 3.776 3.776 0 00-1.302-.787 3.824 3.824 0 00-1.513-.213h.029zm0 5.733H103.5v-4.07h2.576a2.11 2.11 0 011.582.533c.212.192.381.425.497.685a2.02 2.02 0 01-.497 2.332 2.09 2.09 0 01-1.582.534l-.044-.014zm11.192-1.706a3.415 3.415 0 00-1.893.433 3.343 3.343 0 00-1.338 1.388l1.601.659c.161-.288.404-.523.698-.678a1.75 1.75 0 01.961-.196c.459-.044.917.092 1.274.38.357.287.585.702.632 1.153v.13a4.078 4.078 0 00-1.892-.46c-1.731 0-3.492.932-3.492 2.681a2.75 2.75 0 00.95 1.968 2.815 2.815 0 002.106.67c.452.027.903-.065 1.308-.266.404-.202.746-.506.991-.881h.073v.917h1.746v-4.587a3.227 3.227 0 00-.273-1.348 3.27 3.27 0 00-.812-1.118 3.364 3.364 0 00-2.597-.83l-.043-.015zm-.219 6.536c-.596 0-1.455-.286-1.455-1.017 0-.731 1.033-1.276 1.921-1.276a3.313 3.313 0 011.659.401 2.15 2.15 0 01-.685 1.33 2.218 2.218 0 01-1.396.577l-.044-.015zm10.188-6.278l-2.081 5.175-2.154-5.175h-1.892l3.231 7.239-1.834 4.013h1.877l4.978-11.252h-2.125zm-16.184 7.654h1.805v-11.94h-1.805v11.94zM38.036 19.949L19.756 9.657a2.017 2.017 0 00-1.018-.272h-.379c-.23.045-.452.127-.655.244-.31.177-.57.432-.748.739a1.983 1.983 0 00-.27 1.01v20.625a1.96 1.96 0 00.465 1.294c.307.363.736.605 1.208.684h.379c.358.001.71-.093 1.019-.272l18.279-10.292c.305-.171.56-.417.74-.713a2 2 0 00.293-.978 1.997 1.997 0 00-.278-1.01 2.037 2.037 0 00-.755-.739v-.028zm-7.277-2.05l-1.775 2.394-4.57-6.02 6.345 3.626zm6.346 4.028l-12.779 7.166 8.049-10.234 4.773 2.695a.261.261 0 01.146.215.255.255 0 01-.146.23l-.044-.072z" fill="#fff"/></svg>