<svg width="100" height="30" fill="none" xmlns="http://www.w3.org/2000/svg"><g clip-path="url(#clip0_541_40289)" fill="#fff"><path d="M37.133 7.478v8.465h-8.412V8.57c0-.606-.492-1.097-1.098-1.097h-2.848v20.264c0 .606.492 1.097 1.098 1.097h2.848v-9.452h8.417v8.35a1.098 1.098 0 001.08 1.115h2.865V8.57c0-.606-.491-1.097-1.097-1.097h-2.853v.004zm16.707 5.296v10.155a2.6 2.6 0 01-1.272 2.258c-2.229 1.288-4.539-.326-4.539-2.444V13.87c0-.606-.491-1.097-1.097-1.097h-2.848v10.333a6.06 6.06 0 006.035 6.042h1.619a6.064 6.064 0 006.047-6.046V13.87c0-.606-.491-1.097-1.097-1.097H53.84zm43.088 16.074h2.848V14.46c0-.606-.492-1.097-1.098-1.097H95.83v14.38a1.098 1.098 0 001.09 1.105h.008zm2.908-18.363a2.198 2.198 0 10-4.064-1.683 2.199 2.199 0 104.064 1.683zm-31.871 2.28c-4.132 0-7.514 2.953-7.514 7.084v2.233c0 4.13 3.382 7.066 7.514 7.066s7.514-2.936 7.514-7.066v-2.233c.004-4.13-3.377-7.084-7.514-7.084zm3.552 9.584c0 1.953-1.598 3.253-3.556 3.253s-3.552-1.3-3.552-3.253V19.56c0-1.953 1.598-3.254 3.552-3.254s3.556 1.3 3.556 3.254v2.788zm14.142-9.584a8.089 8.089 0 00-3.573.81V8.591c0-.606-.491-1.097-1.097-1.097H78.14v14.587c0 4.13 3.382 7.066 7.514 7.066s7.514-2.936 7.514-7.066v-2.233c.004-4.13-3.37-7.084-7.51-7.084zm3.556 9.584c0 1.953-1.598 3.253-3.556 3.253-1.954 0-3.552-1.3-3.552-3.253V19.56c0-1.953 1.598-3.254 3.552-3.254s3.556 1.3 3.556 3.254v2.788zM12.854 9.227c0-4.305-2.098-8.012-3.695-9.215 0 0-.123-.068-.11.106-.132 8.317-4.383 10.57-6.718 13.604-5.39 7.008-.381 14.689 4.73 16.108 2.848.796-.661-1.407-1.115-6.054-.555-5.61 6.908-9.897 6.908-14.55z"/><path d="M15.3 12.062c-.035-.022-.081-.038-.11.017-.09 1.046-1.158 3.283-2.514 5.342-4.598 6.974-1.98 10.338-.504 12.147.856 1.046 0 0 2.135-1.072a9.64 9.64 0 004.607-7.448c.42-4.957-2.555-8.08-3.615-8.986z"/></g><defs><clipPath id="clip0_541_40289"><path fill="#fff" d="M0 0h100v30H0z"/></clipPath></defs></svg>