<svg width="12" height="12" fill="none" xmlns="http://www.w3.org/2000/svg"><g clip-path="url(#clip0_541_39684)" fill="#fff"><path d="M7.322 4.677a2.8 2.8 0 00-3.96 0L.82 7.223a2.8 2.8 0 003.957 3.961l2.1-2.1a.2.2 0 00-.142-.341h-.08a3.366 3.366 0 01-1.28-.248.2.2 0 00-.218.044l-1.51 1.511A1.2 1.2 0 011.95 8.353L4.502 5.8a1.2 1.2 0 011.696 0 .82.82 0 001.124 0 .8.8 0 00.232-.508.8.8 0 00-.232-.616z"/><path d="M11.179.82a2.8 2.8 0 00-3.96 0L5.123 2.916a.2.2 0 00.146.342h.074c.438-.001.872.084 1.278.25a.2.2 0 00.218-.044L8.343 1.96a1.2 1.2 0 011.698 1.697L8.165 5.531l-.016.018-.655.652a1.2 1.2 0 01-1.696 0 .82.82 0 00-1.124 0 .8.8 0 000 1.128c.231.232.502.422.8.56.042.02.084.036.126.054.042.018.086.032.128.048.042.016.086.03.128.042l.118.032c.08.02.16.036.242.05.098.014.198.024.298.028h.152l.12-.014c.044-.002.09-.012.142-.012h.068l.138-.02.064-.012.116-.024h.022a2.8 2.8 0 001.297-.736l2.546-2.546a2.8 2.8 0 000-3.959z"/></g><defs><clipPath id="clip0_541_39684"><path fill="#fff" d="M0 0h12v12H0z"/></clipPath></defs></svg>