<svg width="356" height="80" fill="none" xmlns="http://www.w3.org/2000/svg"><circle cx="40" cy="40" r="40" fill="#252241"/><mask id="mask0_597_41057" style="mask-type:alpha" maskUnits="userSpaceOnUse" x="7" y="8" width="65" height="65"><path d="M39.998 72.008c17.673 0 32-14.327 32-32 0-17.673-14.327-32-32-32-17.673 0-32 14.327-32 32 0 17.673 14.327 32 32 32z" fill="#848484"/></mask><g mask="url(#mask0_597_41057)"><path d="M39.998 72.008c17.673 0 32-14.327 32-32 0-17.673-14.327-32-32-32-17.673 0-32 14.327-32 32 0 17.673 14.327 32 32 32z" fill="#fff"/><path d="M37.276 57.919L24.64 44.808s4.589 8.76 6.72 14.08c2.035 5.08 4.32 13.28 4.32 13.28l2.72.64-.945-14.487a.64.64 0 00-.178-.402zM15.998 26.408l-7.04 5.44.96-3.36 6.08-2.08z" fill="#252241"/><path d="M15.678 20.488l7.04 2.72L15 22.263a.64.64 0 00-.243.017l-2.28.608 3.2-4.32 18.72-1.28-9.12-2.24H35.42a.64.64 0 01.443.179l3.927 3.776c.032.03.064.055.101.078.45.28 3.652 2.247 6.187 3.167 1.787.649 4.804 1.303 5.86 1.522a.646.646 0 01.489.45l.613 2.084a.64.64 0 00.323.39l7.595 3.874-5.623-4.998a.64.64 0 01-.19-.298l-.659-2.243a.64.64 0 00-.381-.415l-5.92-2.31a.64.64 0 01-.4-.506l-.525-3.671a.636.636 0 00-.494-.533c-1.535-.332-6.823-1.457-10.448-1.986-4.288-.626-11.04-1.12-11.04-1.12l-5.28 2.24v-7.52h53.76v64.48h-30.72s.907-2.835 1.28-4.8c.397-2.102.64-5.6.64-5.6.53 1.911.8 3.885.8 5.87v3.41l4.32-6.4 8-6.4.64-3.36 3.04 1.6-.48-3.52-5.273-3.608a.64.64 0 01.022-1.07l3.859-2.412a.64.64 0 01.792.09l.876.876a.64.64 0 01.186.492l-.26 4.291c-.008.143.186.19.245.06l1.793-3.999-.16-2.72h.64v-3.84l-.96 1.44-.6-3.748a.655.655 0 01.102-.464c.208-.316.596-.923.818-1.388.206-.433.417-1.056.538-1.433a.304.304 0 00-.234-.394c-.5-.094-1.482-.253-2.384-.253-1.025 0-2.468.201-3.357.343-.288.046-.361.42-.117.578.519.337 1.225.803 1.714 1.159.601.438 1.122 1.138 1.336 1.446.07.1.104.219.104.34v4.454l-6.56 3.04-13.911-5.627c-.091-.037-.172.07-.112.148l9.063 11.719-10.393-5.511a.096.096 0 00-.14.098l1.253 8.613-6.907-8.947a.64.64 0 01-.133-.391v-5.917c0-.09-.113-.13-.17-.061l-4.63 5.556 1.875-7.657a.641.641 0 01.182-.313l2.542-2.4a.64.64 0 00.2-.466v-6.81a.64.64 0 01.403-.595l8.052-3.22a.64.64 0 00.111-1.131l-5.19-3.374a.64.64 0 00-.384-.103l-20.431 1.109z" fill="#252241"/><path d="M46.558 27.529c-1.641.088-4.32.64-4.32.64s2.403.776 3.84 1.12c1.437.343 3.68.64 3.68.64l.64-1.92s-2.279-.565-3.84-.48zm6.399 2.239l-1.6.64s1.672.442 2.72.8c1.274.434 3.2 1.28 3.2 1.28s-1.883-1.418-2.72-1.92c-.8-.48-1.6-.8-1.6-.8z" fill="#fff"/></g><path d="M111.047 52.65h-5.537v-1.963l9.177-24.987h5.886l9.216 24.987v1.963h-5.924l-2.014-6.121h-8.674l-2.13 6.121zm6.467-18.942l-2.556 7.854h5.073l-2.517-7.854zm25.136 19.404c-2.762 0-4.943-.654-6.544-1.963-1.6-1.31-2.401-3.132-2.401-5.467v-6.276c0-2.31.801-4.132 2.401-5.467 1.627-1.334 3.808-2.002 6.544-2.002 2.608 0 4.686.655 6.235 1.964 1.549 1.309 2.323 3.118 2.323 5.428v5.005h-12.004v1.31c0 .795.284 1.424.852 1.886.594.436 1.459.654 2.594.654 1.627 0 2.634-.564 3.021-1.694h5.499c-.207 2.08-1.059 3.709-2.556 4.89-1.498 1.155-3.485 1.732-5.964 1.732zm-3.446-13.783v1.04h6.506v-1.04c0-.77-.284-1.373-.852-1.81-.542-.436-1.343-.654-2.401-.654-1.058 0-1.872.218-2.44.655-.542.436-.813 1.04-.813 1.81zm18.185-6.93h3.136l1.51 1.887c1.342-1.566 3.034-2.349 5.073-2.349h1.472v5.198h-1.472c-1.936 0-3.343.552-4.221 1.655v13.86h-5.498V32.4zm23.964 15.785c1.058 0 1.884-.256 2.478-.77.62-.513.93-1.18.93-2.002v-5.736c0-.847-.31-1.528-.93-2.04-.594-.514-1.42-.77-2.478-.77-1.11 0-1.962.269-2.556.808-.594.513-.891 1.18-.891 2.002v5.736c0 .822.297 1.489.891 2.002.594.514 1.446.77 2.556.77zm-8.945-2.58v-6.198c0-2.258.787-4.068 2.362-5.428 1.574-1.36 3.769-2.04 6.583-2.04 2.813 0 4.995.68 6.544 2.04 1.574 1.36 2.362 3.17 2.362 5.428v6.199c0 2.258-.788 4.08-2.362 5.467-1.549 1.36-3.731 2.04-6.544 2.04-2.814 0-5.009-.68-6.583-2.04-1.575-1.386-2.362-3.209-2.362-5.467zm27.235 7.046h-4.686v-2.54l5.422-7.585-5.344-7.585V32.4h4.957l3.794 5.967 3.911-5.968h4.647v2.541l-5.15 7.354 5.538 7.815v2.541h-4.918l-4.105-6.43-4.066 6.43z" fill="#fff"/><path d="M238.587 53.228c-3.279 0-5.835-.847-7.667-2.541-1.808-1.72-2.711-4.107-2.711-7.161v-8.701c0-3.055.903-5.429 2.711-7.123 1.832-1.72 4.388-2.58 7.667-2.58 2.814 0 5.163.783 7.048 2.35 1.884 1.565 2.826 3.836 2.826 6.814v.385h-3.369v-.385c0-1.977-.658-3.478-1.975-4.505-1.29-1.052-2.814-1.578-4.569-1.578-2.246 0-3.976.564-5.189 1.694-1.188 1.103-1.781 2.669-1.781 4.697v9.163c0 2.027.593 3.606 1.781 4.735 1.213 1.104 2.943 1.656 5.189 1.656 1.755 0 3.279-.527 4.569-1.579 1.317-1.027 1.975-2.528 1.975-4.504v-.385h3.369v.385c0 2.977-.942 5.248-2.826 6.814-1.885 1.566-4.234 2.349-7.048 2.349zm21.924-.116c-1.936 0-3.523-.5-4.762-1.501-1.214-1.027-1.821-2.439-1.821-4.235 0-2.028.698-3.58 2.092-4.659 1.419-1.104 3.471-1.655 6.157-1.655h4.995v-1.964c0-1.232-.401-2.182-1.201-2.849-.774-.693-1.91-1.04-3.407-1.04-1.446 0-2.569.334-3.369 1.002-.801.667-1.201 1.552-1.201 2.656h-3.02c0-1.976.658-3.542 1.975-4.697 1.317-1.18 3.188-1.77 5.615-1.77 2.452 0 4.35.59 5.692 1.77 1.342 1.18 2.014 2.76 2.014 4.736V52.65h-1.859l-1.162-2.502c-.749.847-1.729 1.552-2.943 2.117a8.724 8.724 0 01-3.795.847zm.62-2.81c2.169 0 4.182-.924 6.041-2.772v-3.966h-4.995c-3.434 0-5.151 1.155-5.151 3.465 0 1.052.362 1.86 1.085 2.426.748.564 1.755.847 3.02.847zm26.017-17.903c2.117 0 3.808.642 5.073 1.925 1.291 1.283 1.936 3.067 1.936 5.352v6.16c0 2.284-.645 4.068-1.936 5.351-1.291 1.283-3.02 1.925-5.189 1.925-2.582 0-4.686-.962-6.312-2.887v8.585h-3.098V32.861h1.859l1.084 2.618c1.833-2.053 4.027-3.08 6.583-3.08zm-.581 17.903c1.342 0 2.427-.424 3.253-1.27.826-.874 1.239-2.016 1.239-3.427v-5.698c0-1.412-.413-2.541-1.239-3.388-.826-.873-1.897-1.31-3.214-1.31-1.988 0-3.95 1.04-5.886 3.12v8.854c1.936 2.08 3.885 3.119 5.847 3.119zm17.702 2.348h-3.098V32.861h3.098v19.79zm0-22.907h-3.098v-4.235h3.098v4.235zm16.732 22.907h-1.859c-2.297 0-3.937-.603-4.918-1.81-.955-1.206-1.433-2.746-1.433-4.62V35.557h-3.252v-2.695h3.252v-4.12h3.098v4.12h5.112v2.695h-5.112v10.588c0 2.464 1.085 3.696 3.253 3.696h1.859v2.81zm11.469.462c-1.936 0-3.524-.5-4.763-1.501-1.213-1.027-1.82-2.439-1.82-4.235 0-2.028.697-3.58 2.091-4.659 1.42-1.104 3.473-1.655 6.157-1.655h4.995v-1.964c0-1.232-.399-2.182-1.2-2.849-.774-.693-1.91-1.04-3.408-1.04-1.445 0-2.568.334-3.369 1.002-.799.667-1.2 1.552-1.2 2.656h-3.02c0-1.976.658-3.542 1.975-4.697 1.316-1.18 3.188-1.77 5.614-1.77 2.453 0 4.351.59 5.693 1.77 1.342 1.18 2.013 2.76 2.013 4.736V52.65h-1.858l-1.162-2.502c-.749.847-1.729 1.552-2.943 2.117a8.724 8.724 0 01-3.795.847zm.62-2.81c2.168 0 4.182-.924 6.04-2.772v-3.966h-4.995c-3.433 0-5.15 1.155-5.15 3.465 0 1.052.362 1.86 1.084 2.426.749.564 1.756.847 3.021.847zm19.589 2.348h-3.098V25.508h3.098V52.65z" fill="#737185"/></svg>