<svg width="172" height="34" fill="none" xmlns="http://www.w3.org/2000/svg"><circle cx="17" cy="17" r="17" fill="#1B1C1E"/><mask id="mask0_882_59583" style="mask-type:alpha" maskUnits="userSpaceOnUse" x="2" y="2" width="30" height="30"><path d="M17 31.733c8.138 0 14.734-6.596 14.734-14.733S25.138 2.267 17.001 2.267 2.268 8.863 2.268 17 8.864 31.733 17 31.733z" fill="#848484"/></mask><g mask="url(#mask0_882_59583)"><path d="M17 31.733c8.138 0 14.734-6.596 14.734-14.733S25.138 2.267 17.001 2.267 2.268 8.863 2.268 17 8.864 31.733 17 31.733z" fill="#fff"/><path d="M15.747 25.247L9.93 19.21s2.113 4.033 3.094 6.482c.937 2.34 1.989 6.115 1.989 6.115l1.252.295-.435-6.67a.295.295 0 00-.082-.185zM5.951 10.738L2.71 13.243l.442-1.547 2.8-.958z" fill="#1B1C1E"/><path d="M5.803 8.013l3.242 1.252-3.553-.435a.294.294 0 00-.112.008l-1.05.28 1.473-1.99 8.62-.589-4.2-1.03h4.67c.076 0 .15.029.204.081l1.808 1.739c.015.014.03.026.047.036.207.129 1.681 1.034 2.848 1.458.823.299 2.212.6 2.699.701a.297.297 0 01.225.207l.282.96a.295.295 0 00.148.179l3.497 1.784-2.589-2.302a.295.295 0 01-.087-.137l-.303-1.032a.295.295 0 00-.176-.192l-2.725-1.063a.295.295 0 01-.185-.233l-.241-1.69a.293.293 0 00-.228-.246c-.707-.152-3.142-.67-4.81-.914-1.975-.288-5.084-.516-5.084-.516l-2.43 1.032V1.898h24.751v29.688H18.4s.418-1.305.59-2.21c.183-.968.294-2.578.294-2.578.245.88.369 1.789.369 2.702v1.57l1.989-2.946 3.683-2.947.295-1.547 1.4.737-.222-1.62-2.427-1.662a.295.295 0 01.01-.493l1.777-1.11a.295.295 0 01.364.041l.404.404c.06.06.09.142.086.226l-.12 1.976c-.004.065.085.087.112.028l.826-1.842-.074-1.252h.295v-1.768l-.442.663-.276-1.726a.3.3 0 01.047-.213c.095-.146.274-.425.376-.64.095-.2.192-.486.248-.66a.14.14 0 00-.108-.18 6.426 6.426 0 00-1.098-.117c-.471 0-1.136.092-1.545.158-.132.02-.166.193-.054.265.24.156.564.37.79.534.276.202.516.524.614.666.032.046.048.1.048.157v2.05l-3.02 1.4-6.405-2.59c-.042-.018-.08.032-.052.067l4.173 5.396-4.785-2.537a.044.044 0 00-.064.045l.576 3.965-3.18-4.119a.295.295 0 01-.06-.18v-2.724a.044.044 0 00-.08-.029l-2.13 2.559.862-3.525a.294.294 0 01.084-.145l1.17-1.105a.294.294 0 00.093-.214V11.38c0-.12.073-.229.185-.274l3.708-1.483a.295.295 0 00.05-.52l-2.389-1.554a.295.295 0 00-.177-.047l-9.407.51z" fill="#1B1C1E"/><path d="M20.021 11.254c-.755.041-1.989.295-1.989.295s1.107.357 1.768.516c.662.158 1.695.294 1.695.294l.294-.884s-1.05-.26-1.768-.22zm2.947 1.031l-.737.295s.77.204 1.253.368c.586.2 1.473.59 1.473.59s-.867-.653-1.252-.885c-.369-.22-.737-.368-.737-.368z" fill="#fff"/></g><path d="M50.778 22.074H48v-.932l4.604-11.868h2.953l4.623 11.868v.932h-2.972l-1.01-2.907h-4.352l-1.068 2.907zm3.244-8.996l-1.282 3.73h2.545l-1.263-3.73zm12.61 9.216c-1.385 0-2.48-.311-3.282-.933-.803-.621-1.205-1.487-1.205-2.596v-2.98c0-1.098.402-1.963 1.205-2.597.815-.634 1.91-.951 3.283-.951 1.308 0 2.35.31 3.127.932.777.622 1.166 1.481 1.166 2.579v2.377h-6.022v.621c0 .378.142.677.427.896.298.208.732.311 1.302.311.816 0 1.32-.268 1.515-.804h2.758c-.103.987-.53 1.761-1.282 2.322-.75.549-1.748.823-2.991.823zm-1.728-6.546v.493h3.263v-.493c0-.366-.142-.653-.427-.86-.272-.207-.674-.31-1.204-.31-.531 0-.94.103-1.224.31-.272.207-.408.494-.408.86zm9.122-3.292H75.6l.758.896c.673-.744 1.521-1.115 2.544-1.115h.739v2.468h-.739c-.97 0-1.677.262-2.117.787v6.582h-2.759v-9.618zm12.023 7.497c.53 0 .945-.122 1.243-.365.31-.244.466-.561.466-.951v-2.725a1.17 1.17 0 00-.466-.969c-.298-.244-.712-.366-1.243-.366-.557 0-.985.128-1.282.384a1.17 1.17 0 00-.447.951v2.725c0 .39.149.707.447.95.297.244.725.366 1.282.366zm-4.488-1.225v-2.944c0-1.073.395-1.932 1.185-2.578.79-.646 1.891-.97 3.303-.97 1.411 0 2.506.324 3.283.97.79.646 1.185 1.505 1.185 2.578v2.944c0 1.073-.395 1.938-1.185 2.597-.777.646-1.872.969-3.283.969-1.412 0-2.513-.323-3.303-.97-.79-.658-1.185-1.523-1.185-2.596zm13.663 3.346h-2.35v-1.206l2.72-3.603-2.681-3.602v-1.207h2.486l1.904 2.834 1.962-2.834h2.331v1.207l-2.583 3.493 2.778 3.712v1.206h-2.468l-2.059-3.053-2.04 3.053z" fill="#1B1C1E"/><path d="M114.762 22.349c-1.645 0-2.927-.403-3.846-1.207-.907-.817-1.36-1.95-1.36-3.401v-4.133c0-1.45.453-2.578 1.36-3.383.919-.817 2.201-1.225 3.846-1.225 1.412 0 2.59.372 3.536 1.115.945.744 1.418 1.823 1.418 3.237v.183h-1.69v-.183c0-.939-.331-1.652-.991-2.14-.648-.5-1.412-.75-2.292-.75-1.127 0-1.995.27-2.604.805-.595.525-.893 1.268-.893 2.231v4.352c0 .963.298 1.713.893 2.25.609.524 1.477.786 2.604.786.88 0 1.644-.25 2.292-.75.66-.488.991-1.2.991-2.14v-.182h1.69v.183c0 1.414-.473 2.492-1.418 3.236-.946.744-2.124 1.116-3.536 1.116zm10.999-.055c-.971 0-1.768-.238-2.389-.713-.609-.488-.913-1.159-.913-2.012 0-.963.349-1.7 1.049-2.212.712-.525 1.741-.787 3.088-.787h2.506v-.932c0-.585-.2-1.037-.602-1.353-.388-.33-.958-.494-1.709-.494-.726 0-1.289.158-1.69.475-.402.317-.603.738-.603 1.262h-1.515c0-.939.33-1.682.991-2.23.66-.562 1.599-.842 2.817-.842 1.23 0 2.182.28 2.855.841.674.56 1.011 1.31 1.011 2.25v6.527h-.933l-.583-1.188c-.375.402-.867.737-1.476 1.005a4.587 4.587 0 01-1.904.403zm.311-1.335c1.088 0 2.098-.439 3.03-1.317V17.76h-2.506c-1.722 0-2.583.548-2.583 1.646 0 .5.181.883.544 1.152.375.268.88.402 1.515.402zm13.052-8.503c1.062 0 1.91.305 2.545.914.648.61.971 1.457.971 2.542v2.926c0 1.085-.323 1.932-.971 2.541-.648.61-1.515.915-2.603.915-1.295 0-2.351-.457-3.167-1.372V25h-1.554V12.675h.933l.544 1.244c.919-.975 2.02-1.463 3.302-1.463zm-.291 8.503c.673 0 1.217-.201 1.632-.604.414-.414.621-.957.621-1.627v-2.706c0-.67-.207-1.207-.621-1.61-.415-.414-.952-.621-1.613-.621-.997 0-1.981.494-2.953 1.481v4.206c.972.987 1.949 1.48 2.934 1.48zm8.88 1.115h-1.554v-9.399h1.554v9.4zm0-10.88h-1.554V9.183h1.554v2.011zm8.394 10.88h-.932c-1.153 0-1.975-.286-2.467-.86-.48-.572-.719-1.303-.719-2.193v-5.066h-1.632v-1.28h1.632V10.72h1.554v1.956h2.564v1.28h-2.564v5.029c0 1.17.544 1.755 1.632 1.755h.932v1.335zm5.754.22c-.971 0-1.768-.238-2.389-.713-.609-.488-.913-1.159-.913-2.012 0-.963.349-1.7 1.049-2.212.712-.525 1.742-.787 3.088-.787h2.506v-.932c0-.585-.2-1.037-.602-1.353-.388-.33-.958-.494-1.709-.494-.725 0-1.289.158-1.69.475-.402.317-.603.738-.603 1.262h-1.515c0-.939.33-1.682.991-2.23.66-.562 1.6-.842 2.817-.842 1.23 0 2.182.28 2.855.841.674.56 1.011 1.31 1.011 2.25v6.527h-.933l-.583-1.188c-.375.402-.867.737-1.476 1.005a4.584 4.584 0 01-1.904.403zm.311-1.335c1.088 0 2.098-.439 3.03-1.317V17.76h-2.506c-1.722 0-2.583.548-2.583 1.646 0 .5.181.883.544 1.152.375.268.881.402 1.515.402zm9.827 1.115h-1.554V9.183h1.554v12.891z" fill="#737185"/></svg>