<svg width="18" height="18" fill="none" xmlns="http://www.w3.org/2000/svg"><path fill-rule="evenodd" clip-rule="evenodd" d="M10.66 5.822c0 1.983-1.623 3.572-3.648 3.572-2.024 0-3.647-1.59-3.647-3.572 0-1.983 1.623-3.572 3.647-3.572 2.025 0 3.647 1.589 3.647 3.572zM1.5 13.438c0-1.836 2.54-2.295 5.512-2.295 2.989 0 5.512.475 5.512 2.312 0 1.836-2.54 2.295-5.512 2.295-2.989 0-5.512-.475-5.512-2.312zm10.63-7.551c0 1.01-.31 1.951-.853 2.734-.056.08-.006.19.092.206.137.023.277.036.42.04 1.424.036 2.701-.862 3.054-2.214.523-2.005-1.012-3.806-2.968-3.806a3.12 3.12 0 00-.613.06c-.027.006-.057.02-.071.042-.02.03-.005.068.014.093a4.81 4.81 0 01.925 2.845zm2.358 4.39c.957.183 1.586.556 1.846 1.1a1.58 1.58 0 010 1.409c-.398.842-1.684 1.113-2.184 1.183a.155.155 0 01-.175-.174c.255-2.335-1.775-3.441-2.3-3.696-.023-.012-.028-.03-.026-.04a.032.032 0 01.028-.022c1.137-.021 2.36.132 2.81.24z" fill="#fff"/></svg>