<svg width="84" height="26" fill="none" xmlns="http://www.w3.org/2000/svg"><path d="M0 .313c2.024 0 4.03-.02 6.053.061 1.585 4.104 4.372 7.766 5.074 12.192.763-4.404 3.37-8.188 5.093-12.253 1.762 0 3.528 0 5.29-.02a1238.224 1238.224 0 01-7.44 14.275c-.34.701-.76 1.39-.721 2.225-.04 2.902.02 5.805 0 8.728H8.4c-.08-3.084.14-6.168-.1-9.229C5.694 10.904 2.787 5.618 0 .312zm28.808 7.026c3.03-.62 6.597-.1 8.663 2.383s2.325 5.867 1.985 8.928c-.278 2.803-1.949 5.586-4.653 6.648-3.388 1.32-7.818.86-10.224-2.082-2.186-2.884-2.345-6.846-1.523-10.23.64-2.783 2.926-5.124 5.752-5.647zm1.084 3.926c-1.844.556-2.287 2.68-2.406 4.343-.1 1.902.02 4.104 1.392 5.544 1.504 1.602 4.51.982 5.274-1.059a10.254 10.254 0 00-.042-7.087c-.568-1.663-2.634-2.422-4.218-1.74z" fill="#fff"/><path d="M42.904.513c3.508-.4 7.078-.7 10.625-.278 1.824.242 3.748.834 5.013 2.302 1.523 1.668 1.564 4.204.835 6.248-.602 1.682-2.244 2.56-3.648 3.462 1.423.556 3.027 1.112 3.899 2.502 2.066 3.203.835 8.03-2.646 9.67-4.352 2.164-9.403 1.39-14.056.962-.122-8.29-.022-16.58-.022-24.868zm4.873 3.784c-.123 2.202-.123 4.424-.062 6.626 2.044-.039 4.392.161 6.015-1.36 1.584-1.142 1.442-3.984-.42-4.765-1.724-.82-3.69-.467-5.533-.5zm-.081 10.53a399.036 399.036 0 000 6.673c2.205.1 4.734.5 6.616-.92 1.623-1.163 1.623-4.026-.181-5.005-1.966-1.068-4.291-.679-6.435-.748zM65.277.332c1.704-.834 4.411-.078 4.631 2.044.061 2.78-4.25 3.584-5.653 1.42-.801-1.134-.239-2.902 1.022-3.464zm8.964 3.893c1.581-.42 3.146-.86 4.733-1.301 0 1.562.02 3.103.02 4.646 1.464 0 2.946.02 4.41.078-.019 1.281-.038 2.563-.06 3.826-1.443.02-2.908.02-4.35.02.1 3.083-.279 6.186.22 9.247.557 1.721 2.706.742 3.951.581.278 1.201.557 2.402.835 3.584-2.325.82-4.95 1.602-7.356.64-1.671-.62-2.286-2.483-2.367-4.085-.22-3.303-.04-6.626-.08-9.948-.822 0-1.605 0-2.426.019-.061-1.32-.061-2.622-.061-3.943.835-.02 1.645-.02 2.467-.041.022-1.11.022-2.23.07-3.331l-.006.008zm-9.746 3.364c1.604-.02 3.188-.02 4.792 0v17.929H64.5l-.005-17.929z" fill="#EEE"/></svg>